<svg width="95" height="128" viewBox="0 0 95 128" fill="none" xmlns="http://www.w3.org/2000/svg">
<path d="M47.3655 0C60.4109 0.0418755 74.0221 3.05714 86.8813 9.1208C88.4623 9.84786 89.7633 11.3691 90.6848 12.8769C91.6328 14.4282 92.3493 16.244 92.5967 17.8523C93.8459 27.4292 94.2808 37.3954 94.6865 42.2647C94.9981 61.7868 93.7119 74.6828 89.8142 85.0294C85.8995 95.4213 79.4145 103.132 69.7267 112.507C64.2776 117.746 58.3912 122.581 52.3045 126.779C50.9253 127.698 49.017 128.04 47.3655 127.996C45.714 128.04 43.8058 127.699 42.4265 126.779C36.3399 122.582 30.4534 117.747 25.0043 112.507C15.3166 103.132 8.83159 95.4218 4.91689 85.03C1.01922 74.6833 -0.266983 61.7873 0.0445332 42.2653C0.450312 37.3959 0.885196 27.4297 2.13434 17.8528C2.38176 16.2446 3.09833 14.4288 4.04628 12.8775C4.96773 11.3696 6.2688 9.84842 7.84978 9.12135C20.709 3.05769 34.3202 0.0418878 47.3655 0Z" fill="black"/>
<path d="M47.98 2.38391L49.1529 2.39563L49.1597 2.39661C61.429 2.61075 73.6799 5.53439 85.8482 11.2697L85.8599 11.2745L85.8775 11.2823L85.8882 11.2872L85.8872 11.2882C86.8376 11.7261 87.8294 12.7751 88.6509 14.1193C89.4641 15.4499 90.0446 16.9625 90.2378 18.1984L90.2417 18.2238C91.4748 27.6886 91.8865 37.3175 92.3023 42.3448L92.3052 42.379L92.3062 42.4122C92.6134 61.8361 91.3141 74.2888 87.5845 84.1896C83.8584 94.0806 77.6808 101.493 68.0699 110.794L68.0669 110.796C62.7107 115.946 56.9433 120.683 50.9732 124.801L50.9644 124.807L50.9546 124.814C50.1201 125.362 48.7606 125.658 47.3882 125.614H47.3794L47.3658 125.613L47.354 125.614H47.3443C45.9687 125.658 44.6054 125.361 43.771 124.81L43.7622 124.804L43.7544 124.798C37.7859 120.68 32.0196 115.946 26.6646 110.797L26.6617 110.794C17.0507 101.493 10.8731 94.0806 7.14701 84.1896C3.41742 74.2888 2.11808 61.8361 2.42533 42.4122L2.42631 42.379L2.42924 42.3458C2.84507 37.3186 3.25662 27.6891 4.48979 18.2238L4.49369 18.1984C4.68699 16.9624 5.26777 15.4504 6.08061 14.1202C6.90608 12.7696 7.90322 11.7154 8.85795 11.2814L8.86283 11.2794L8.86674 11.2775C21.0407 5.53695 33.2978 2.61081 45.5728 2.39661L45.5796 2.39563L46.7525 2.38391H47.98Z" fill="white"/>
<path d="M47.9595 4.38379L49.1245 4.39453C61.0958 4.60348 73.0755 7.45734 85.0122 13.0859L85.0278 13.0938L85.0357 13.0967L85.0386 13.0986L85.0464 13.1016C85.4678 13.2933 86.2037 13.9495 86.9448 15.1621C87.6443 16.3067 88.1117 17.5665 88.2593 18.4951C89.481 27.8784 89.8818 37.3263 90.3062 42.4766C90.6105 61.8243 89.3029 73.9556 85.7134 83.4844C82.1456 92.9552 76.2251 100.118 66.6782 109.356C61.4007 114.43 55.7217 119.093 49.8501 123.145C49.4744 123.388 48.5741 123.651 47.4507 123.615L47.4067 123.613L47.3657 123.612L47.3247 123.613L47.2808 123.615C46.2891 123.647 45.4729 123.446 45.0366 123.232L44.8735 123.141C39.0036 119.09 33.3263 114.427 28.0503 109.354C18.5052 100.117 12.5865 92.9543 9.01905 83.4844C5.4296 73.9556 4.12002 61.8248 4.42433 42.4775C4.84869 37.3274 5.24944 27.8789 6.4712 18.4951C6.61876 17.5668 7.08807 16.3078 7.78761 15.1631C8.52903 13.9499 9.26475 13.294 9.68605 13.1025L9.69288 13.0986L9.69972 13.0957L9.71046 13.0908L9.70948 13.0898H9.71241L9.72023 13.0859C21.657 7.4573 33.6366 4.60442 45.6079 4.39551L45.6069 4.39453L46.773 4.38379H47.9595Z" fill="#1F1E1F"/>
<path fill-rule="evenodd" clip-rule="evenodd" d="M43.3447 38.4267C39.5215 38.9815 35.7512 40.4921 32.9385 42.5962L30.513 44.4106L30.2263 49.175C29.992 53.0638 29.6131 54.7863 28.1645 58.5484C27.188 61.0834 26.3895 63.3726 26.3895 63.6356C26.3895 63.8986 25.6269 65.2065 24.6945 66.5421L23 68.971L24.4602 71.4132C25.2636 72.756 26.2246 74.5708 26.5952 75.4459C27.3151 77.144 27.7153 77.3023 32.696 77.8575C38.4514 78.4993 38.9501 78.9182 40.0649 84.0432C40.3526 85.3645 40.8634 86.6638 41.2001 86.9301C41.5624 87.2166 42.0349 89.6602 42.3566 92.9135C43.3642 103.109 44.3353 113.234 44.3518 113.716C44.361 113.979 44.5648 113.863 44.8049 113.458C45.0456 113.054 45.3846 108.75 45.5583 103.894C46.0978 88.8454 46.7323 84.1149 48.0387 85.4027C48.406 85.7647 49.0497 95.1639 49.5188 107.021C49.8307 114.892 49.8598 115.069 50.4454 112.587C50.7777 111.176 51.401 106.334 51.8304 101.827C52.8166 91.4703 53.4705 87.0444 54.0677 86.6805C54.3268 86.5227 54.9555 84.9111 55.4653 83.0987C56.7223 78.6294 57.1128 78.3812 63.7433 77.8398L67.3817 77.5429L69.6908 73.2471L72 68.9518L70.7552 67.3431C68.0046 63.7881 64.6578 53.19 64.6816 48.1095C64.6976 44.7142 64.6748 44.6521 62.8866 43.1916C60.8802 41.5533 57.1899 39.7126 54.416 38.9666C52.6119 38.4817 52.607 38.4846 52.1146 40.2325C51.4277 42.6699 51.4879 43.1787 52.4644 43.1868C54.4354 43.2041 54.7246 43.875 53.8703 46.4497C53.4303 47.7748 53.0708 48.9517 53.0708 49.0655C53.0708 49.1788 54.0638 49.3825 55.2776 49.5174C56.4918 49.6522 57.5829 49.8593 57.7027 49.9774C57.8225 50.0955 56.7019 52.8644 55.2126 56.1305C53.7233 59.3967 52.1927 62.8016 51.8114 63.6968C50.5298 66.7042 50.6278 64.8933 52.0327 59.6143C52.7996 56.7336 53.5904 53.8691 53.7897 53.2484C54.1444 52.1485 54.0978 52.1279 51.9143 52.423C49.3519 52.7692 49.2607 52.5865 50.4027 49.3964C51.4758 46.3985 51.3744 46.0489 49.4325 46.0489C47.4736 46.0489 47.4765 46.0623 48.5335 41.9148C49.6047 37.7109 49.3689 37.5526 43.3447 38.4267ZM27.1531 48.5595C25.2019 51.5 23.6171 57.9535 24.3598 59.9328C24.7251 60.9055 24.9652 60.5855 26.3749 57.2491C27.8274 53.8107 28.9873 47.4836 28.165 47.4836C28.001 47.4836 27.546 47.9675 27.1531 48.5595ZM66.7641 50.1137C66.9097 51.6918 67.7465 54.8121 68.6236 57.0477C70.0925 60.7921 70.2473 61.0064 70.5868 59.763C71.3577 56.9373 69.2834 49.514 67.2628 47.8666C66.5788 47.309 66.5269 47.5428 66.7641 50.1137ZM39.3231 64.5131C46.5028 68.5654 46.4441 68.4578 43.0556 71.3907C41.2772 72.9301 41.1942 72.9497 37.52 72.7015C33.918 72.4581 31.8723 71.8254 31.1267 70.7246C30.0744 69.1713 31.2469 60.8734 32.5184 60.8734C32.7149 60.8734 35.7774 62.5113 39.3231 64.5131ZM63.6599 62.1885C63.9 62.6485 64.2217 64.5781 64.375 66.4757C64.7398 70.9852 64.1935 71.6934 59.6107 72.6489C55.0637 73.5976 53.5113 73.249 51.3875 70.803C50.4367 69.7079 49.7323 68.5951 49.8215 68.3301C50.0587 67.6291 61.3367 61.3516 62.3588 61.3516C62.8347 61.3516 63.4203 61.7285 63.6599 62.1885ZM50.2702 74.9806C51.857 77.8494 51.9939 79.7685 50.6617 80.4714C49.8579 80.8956 49.6022 80.767 49.0322 79.6513C48.6601 78.9235 48.1872 77.6825 47.9805 76.8935C47.6094 75.4746 47.5982 75.4847 46.9739 77.8025C46.1346 80.9176 44.8394 81.8171 43.841 79.9784C43.4505 79.2592 43.4631 78.5385 43.8886 77.2674C45.7577 71.6848 48.0018 70.8804 50.2702 74.9806ZM30.5406 80.4049C30.7274 80.8411 31.5705 83.8873 32.4146 87.175C34.3541 94.7312 35.2913 96.5001 34.8213 91.718C34.6403 89.8769 34.3609 86.6819 34.2003 84.618L33.9088 80.8655L32.0552 80.2395C30.3752 79.6719 30.2331 79.6872 30.5406 80.4049ZM62.4093 80.3394C61.8092 80.4532 61.3047 80.908 61.2891 81.3504C61.2731 81.7922 60.9971 84.8977 60.6755 88.2509C60.3543 91.6041 60.2583 94.3481 60.462 94.3481C60.6658 94.3481 60.8326 94.262 60.8326 94.1568C60.8326 93.9474 64.081 82.1896 64.5118 80.8387C64.7839 79.9865 64.5544 79.932 62.4093 80.3394ZM36.23 83.971C36.363 84.3134 36.8631 88.5632 37.341 93.4156C37.9828 99.9312 38.4398 102.614 39.0893 103.673L39.9693 105.108L39.9708 99.1178C39.9737 90.6525 39.2475 85.2502 37.9639 84.1862C36.7748 83.2006 35.8871 83.0906 36.23 83.971ZM57.579 83.9509C56.1237 84.607 55.6283 87.4327 55.2553 97.2174C54.955 105.082 54.9569 105.103 55.869 103.673C56.4623 102.743 56.9896 100.475 57.3709 97.2174C57.9695 92.0981 58.7913 83.6372 58.7001 83.5281C58.6724 83.4951 58.1679 83.6855 57.579 83.9509Z" fill="#C7C6C9"/>
<path d="M8 29.504V27.536H8.6V22.136H8V20.168H16.1V23.792H13.412V22.136H11.96V24.032H13.016V25.4H11.96V27.536H13.412V25.64H16.1V29.504H8Z" fill="white"/>
<path d="M20.2747 29.672C19.5067 29.672 18.7787 29.608 18.0907 29.48C17.4107 29.344 16.8867 29.192 16.5187 29.024V26.648H19.1587C19.1587 26.896 19.2147 27.076 19.3267 27.188C19.4387 27.3 19.6427 27.356 19.9387 27.356C20.1867 27.356 20.3627 27.32 20.4667 27.248C20.5787 27.168 20.6347 27.052 20.6347 26.9C20.6347 26.772 20.5827 26.664 20.4787 26.576C20.3747 26.48 20.1947 26.384 19.9387 26.288L18.9067 25.928C18.0187 25.592 17.3787 25.196 16.9867 24.74C16.6027 24.284 16.4107 23.668 16.4107 22.892C16.4107 21.948 16.7187 21.232 17.3347 20.744C17.9587 20.248 18.9947 20 20.4427 20C21.1387 20 21.7907 20.072 22.3987 20.216C23.0147 20.352 23.5107 20.536 23.8867 20.768V22.916H21.4867C21.4867 22.516 21.2387 22.316 20.7427 22.316C20.5027 22.316 20.3307 22.348 20.2267 22.412C20.1307 22.468 20.0827 22.572 20.0827 22.724C20.0827 22.86 20.1387 22.968 20.2507 23.048C20.3707 23.128 20.5627 23.212 20.8267 23.3L21.8707 23.66C22.7187 23.948 23.3347 24.324 23.7187 24.788C24.1107 25.244 24.3067 25.844 24.3067 26.588C24.3067 27.604 23.9627 28.372 23.2747 28.892C22.5947 29.412 21.5947 29.672 20.2747 29.672Z" fill="white"/>
<path d="M24.6406 27.536H25.2406V22.136H24.6406V20.168H29.9086C30.9406 20.168 31.7286 20.392 32.2726 20.84C32.8166 21.28 33.0886 21.996 33.0886 22.988C33.0886 23.98 32.8166 24.7 32.2726 25.148C31.7286 25.588 30.9406 25.808 29.9086 25.808H28.6006V27.536H29.7526V29.504H24.6406V27.536ZM29.0086 24.104C29.4726 24.104 29.7046 23.848 29.7046 23.336V22.904C29.7046 22.64 29.6446 22.448 29.5246 22.328C29.4126 22.2 29.2406 22.136 29.0086 22.136H28.6006V24.104H29.0086Z" fill="white"/>
<path d="M33.5 29.504V27.536H34.1V22.136H33.5V20.168H41.6V23.792H38.912V22.136H37.46V24.032H38.516V25.4H37.46V27.536H38.912V25.64H41.6V29.504H33.5Z" fill="white"/>
<path d="M46.7107 29.672C45.1987 29.672 44.0307 29.288 43.2067 28.52C42.3907 27.752 41.9827 26.524 41.9827 24.836C41.9827 21.612 43.5507 20 46.6867 20C47.4467 20 48.1507 20.092 48.7987 20.276C49.4547 20.46 49.9427 20.664 50.2627 20.888V23.888H47.3827V23.024C47.3827 22.72 47.3147 22.496 47.1787 22.352C47.0427 22.208 46.8387 22.136 46.5667 22.136C46.2947 22.136 46.0907 22.208 45.9547 22.352C45.8187 22.496 45.7507 22.72 45.7507 23.024V26.648C45.7507 26.952 45.8187 27.176 45.9547 27.32C46.0907 27.464 46.2947 27.536 46.5667 27.536C46.8387 27.536 47.0427 27.464 47.1787 27.32C47.3147 27.176 47.3827 26.952 47.3827 26.648V25.676H50.2627V28.784C49.9347 29.008 49.4467 29.212 48.7987 29.396C48.1587 29.58 47.4627 29.672 46.7107 29.672Z" fill="white"/>
<path d="M59.6668 23.072H57.6028V22.136H56.8348V27.536H57.6748V29.504H52.6348V27.536H53.4748V22.136H52.7068V23.072H50.6428V20.168H59.6668V23.072Z" fill="white"/>
<path d="M60.0781 27.536H60.6781V22.136H60.0781V20.168H65.5861C66.6181 20.168 67.4061 20.38 67.9501 20.804C68.4941 21.228 68.7661 21.916 68.7661 22.868C68.7661 23.404 68.6581 23.868 68.4421 24.26C68.2261 24.652 67.9181 24.924 67.5181 25.076L67.5301 25.196C68.2981 25.316 68.6821 25.788 68.6821 26.612V27.536H69.2461V29.504H65.4421V26.684C65.4421 26.372 65.3941 26.136 65.2981 25.976C65.2101 25.816 65.0661 25.708 64.8661 25.652C64.6741 25.596 64.3981 25.568 64.0381 25.568V27.536H64.8301V29.504H60.0781V27.536ZM64.6861 24.104C64.9181 24.104 65.0901 24.044 65.2021 23.924C65.3221 23.796 65.3821 23.6 65.3821 23.336V22.904C65.3821 22.64 65.3221 22.448 65.2021 22.328C65.0901 22.2 64.9181 22.136 64.6861 22.136H64.0381V24.104H64.6861Z" fill="white"/>
<path d="M74.1878 29.672C72.7238 29.672 71.5918 29.288 70.7918 28.52C69.9998 27.752 69.6038 26.524 69.6038 24.836C69.6038 23.148 69.9998 21.92 70.7918 21.152C71.5918 20.384 72.7238 20 74.1878 20C75.6518 20 76.7798 20.384 77.5718 21.152C78.3718 21.92 78.7718 23.148 78.7718 24.836C78.7718 26.524 78.3718 27.752 77.5718 28.52C76.7798 29.288 75.6518 29.672 74.1878 29.672ZM74.1878 27.536C74.4598 27.536 74.6638 27.464 74.7998 27.32C74.9358 27.176 75.0038 26.952 75.0038 26.648V23.024C75.0038 22.72 74.9358 22.496 74.7998 22.352C74.6638 22.208 74.4598 22.136 74.1878 22.136C73.9158 22.136 73.7118 22.208 73.5758 22.352C73.4398 22.496 73.3718 22.72 73.3718 23.024V26.648C73.3718 26.96 73.4398 27.188 73.5758 27.332C73.7118 27.468 73.9158 27.536 74.1878 27.536Z" fill="white"/>
<path d="M82.8997 29.672C82.1317 29.672 81.4037 29.608 80.7157 29.48C80.0357 29.344 79.5117 29.192 79.1437 29.024V26.648H81.7837C81.7837 26.896 81.8397 27.076 81.9517 27.188C82.0637 27.3 82.2677 27.356 82.5637 27.356C82.8117 27.356 82.9877 27.32 83.0917 27.248C83.2037 27.168 83.2597 27.052 83.2597 26.9C83.2597 26.772 83.2077 26.664 83.1037 26.576C82.9997 26.48 82.8197 26.384 82.5637 26.288L81.5317 25.928C80.6437 25.592 80.0037 25.196 79.6117 24.74C79.2277 24.284 79.0357 23.668 79.0357 22.892C79.0357 21.948 79.3437 21.232 79.9597 20.744C80.5837 20.248 81.6197 20 83.0677 20C83.7637 20 84.4157 20.072 85.0237 20.216C85.6397 20.352 86.1357 20.536 86.5117 20.768V22.916H84.1117C84.1117 22.516 83.8637 22.316 83.3677 22.316C83.1277 22.316 82.9557 22.348 82.8517 22.412C82.7557 22.468 82.7077 22.572 82.7077 22.724C82.7077 22.86 82.7637 22.968 82.8757 23.048C82.9957 23.128 83.1877 23.212 83.4517 23.3L84.4957 23.66C85.3437 23.948 85.9597 24.324 86.3437 24.788C86.7357 25.244 86.9317 25.844 86.9317 26.588C86.9317 27.604 86.5877 28.372 85.8997 28.892C85.2197 29.412 84.2197 29.672 82.8997 29.672Z" fill="white"/>
</svg>
