<svg width="128" height="128" viewBox="0 0 128 128" fill="none" xmlns="http://www.w3.org/2000/svg">
<path fill-rule="evenodd" clip-rule="evenodd" d="M58.4031 12.584C53.2535 13.3431 48.1751 15.4103 44.3866 18.2896L41.1195 20.7724L40.7333 27.2921C40.4177 32.6136 39.9074 34.9707 37.9563 40.1188C36.641 43.5878 35.5654 46.7203 35.5654 47.0802C35.5654 47.4402 34.5383 49.2299 33.2824 51.0576L31 54.3813L32.9668 57.7233C34.0489 59.5608 35.3433 62.0442 35.8425 63.2418C36.8122 65.5655 37.3512 65.7821 44.0599 66.5419C51.8121 67.4201 52.4838 67.9933 53.9854 75.0064C54.3728 76.8145 55.0609 78.5925 55.5144 78.957C56.0025 79.349 56.6389 82.6929 57.0721 87.1448C58.4293 101.097 59.7374 114.952 59.7596 115.611C59.772 115.971 60.0465 115.812 60.3699 115.259C60.694 114.705 61.1507 108.816 61.3847 102.171C62.1113 81.5779 62.966 75.1046 64.7256 76.8669C65.2203 77.3623 66.0873 90.2243 66.7192 106.449C67.1393 117.221 67.1786 117.463 67.9672 114.066C68.4148 112.136 69.2545 105.51 69.8327 99.342C71.1611 85.1698 72.042 79.1134 72.8463 78.6154C73.1952 78.3995 74.0421 76.1942 74.7288 73.714C76.4218 67.5981 76.9478 67.2584 85.8788 66.5177L90.7794 66.1113L93.8897 60.2329L97 54.3551L95.3233 52.1537C91.6184 47.289 87.1105 32.7863 87.1425 25.8341C87.1641 21.1879 87.1333 21.1028 84.7248 19.1043C82.0223 16.8624 77.0517 14.3436 73.3155 13.3228C70.8854 12.6592 70.8789 12.6631 70.2156 15.0549C69.2904 18.3904 69.3714 19.0867 70.6868 19.0978C73.3416 19.1213 73.7311 20.0395 72.5804 23.5627C71.9877 25.376 71.5035 26.9865 71.5035 27.1422C71.5035 27.2973 72.8411 27.5761 74.476 27.7606C76.1115 27.9452 77.581 28.2285 77.7424 28.3901C77.9038 28.5518 76.3944 32.3407 74.3884 36.8102C72.3824 41.2797 70.3208 45.939 69.8073 47.164C68.0809 51.2795 68.2129 48.8013 70.1052 41.5775C71.1383 37.6354 72.2033 33.7156 72.4719 32.8662C72.9496 31.3611 72.8868 31.333 69.9458 31.7367C66.4944 32.2105 66.3716 31.9605 67.9097 27.5951C69.3551 23.4927 69.2185 23.0143 66.6029 23.0143C63.9644 23.0143 63.9683 23.0326 65.3921 17.3571C66.8348 11.6043 66.5173 11.3877 58.4031 12.584ZM36.5939 26.4499C33.9659 30.4737 31.8311 39.3047 32.8315 42.0133C33.3235 43.3443 33.647 42.9065 35.5458 38.3408C37.5022 33.6357 39.0645 24.9775 37.9569 24.9775C37.7361 24.9775 37.1232 25.6397 36.5939 26.4499ZM89.9476 28.5766C90.1436 30.7361 91.2708 35.0061 92.4522 38.0653C94.4307 43.1892 94.6392 43.4824 95.0966 41.781C96.1349 37.9142 93.3408 27.756 90.6193 25.5017C89.698 24.7386 89.6281 25.0586 89.9476 28.5766ZM52.9863 48.2811C62.6569 53.8264 62.5778 53.6792 58.0137 57.6925C55.6182 59.799 55.5065 59.8259 50.5575 59.4862C45.7058 59.1531 42.9504 58.2874 41.9461 56.781C40.5288 54.6555 42.1081 43.3005 43.8207 43.3005C44.0854 43.3005 48.2104 45.5418 52.9863 48.2811ZM85.7664 45.1001C86.0898 45.7296 86.5231 48.3701 86.7295 50.9667C87.2209 57.1376 86.4852 58.1068 80.3123 59.4142C74.1878 60.7125 72.0969 60.2355 69.2362 56.8883C67.9555 55.3897 67.0067 53.8669 67.1269 53.5044C67.4465 52.5451 82.6372 43.9549 84.0139 43.9549C84.6549 43.9549 85.4436 44.4705 85.7664 45.1001ZM67.7313 62.6051C69.8687 66.5308 70.0529 69.1568 68.2587 70.1188C67.1759 70.6992 66.8316 70.5232 66.0638 68.9965C65.5626 68.0005 64.9256 66.3024 64.6472 65.2226C64.1474 63.281 64.1323 63.2948 63.2914 66.4666C62.1609 70.7293 60.4163 71.9602 59.0716 69.4441C58.5456 68.4599 58.5626 67.4737 59.1356 65.7344C61.6532 58.095 64.6759 56.9943 67.7313 62.6051ZM41.1568 70.0278C41.4083 70.6246 42.544 74.7931 43.6809 79.2921C46.2933 89.6321 47.5557 92.0527 46.9225 85.5088C46.6788 82.9894 46.3024 78.6174 46.0862 75.793L45.6935 70.658L43.1967 69.8014C40.934 69.0247 40.7425 69.0456 41.1568 70.0278ZM84.0819 69.9382C83.2736 70.0939 82.594 70.7163 82.5731 71.3216C82.5515 71.9262 82.1798 76.1758 81.7466 80.7644C81.314 85.353 81.1846 89.1079 81.4591 89.1079C81.7335 89.1079 81.9583 88.9902 81.9583 88.8462C81.9583 88.5596 86.3335 72.47 86.9138 70.6214C87.2804 69.4552 86.9713 69.3806 84.0819 69.9382ZM48.82 74.9076C48.9991 75.3762 49.6728 81.1918 50.3164 87.8319C51.1809 96.748 51.7964 100.419 52.6713 101.869L53.8566 103.832L53.8586 95.6349C53.8625 84.0508 52.8843 76.6581 51.1554 75.2021C49.5539 73.8534 48.3581 73.7029 48.82 74.9076ZM77.5758 74.8801C75.6155 75.778 74.9484 79.6448 74.4459 93.0343C74.0414 103.797 74.044 103.825 75.2725 101.869C76.0716 100.595 76.7819 97.4927 77.2955 93.0343C78.1018 86.029 79.2087 74.4509 79.0858 74.3017C79.0486 74.2565 78.369 74.517 77.5758 74.8801Z" fill="white"/>
</svg>
