<svg width="95" height="128" viewBox="0 0 95 128" fill="none" xmlns="http://www.w3.org/2000/svg">
<path d="M47.3655 0C60.4109 0.0418755 74.0221 3.05714 86.8813 9.1208C88.4623 9.84786 89.7633 11.3691 90.6848 12.8769C91.6328 14.4282 92.3493 16.244 92.5967 17.8523C93.8459 27.4292 94.2808 37.3954 94.6865 42.2647C94.9981 61.7868 93.7119 74.6828 89.8142 85.0294C85.8995 95.4213 79.4145 103.132 69.7267 112.507C64.2776 117.746 58.3912 122.581 52.3045 126.779C50.9253 127.698 49.017 128.04 47.3655 127.996C45.714 128.04 43.8058 127.699 42.4265 126.779C36.3399 122.582 30.4534 117.747 25.0043 112.507C15.3166 103.132 8.83159 95.4218 4.91689 85.03C1.01922 74.6833 -0.266983 61.7873 0.0445332 42.2653C0.450312 37.3959 0.885196 27.4297 2.13434 17.8528C2.38176 16.2446 3.09833 14.4288 4.04628 12.8775C4.96773 11.3696 6.2688 9.84842 7.84978 9.12135C20.709 3.05769 34.3202 0.0418878 47.3655 0Z" fill="black"/>
<path d="M47.98 2.38391L49.1529 2.39563L49.1597 2.39661C61.429 2.61075 73.6799 5.53439 85.8482 11.2697L85.8599 11.2745L85.8775 11.2823L85.8882 11.2872L85.8872 11.2882C86.8376 11.7261 87.8294 12.7751 88.6509 14.1193C89.4641 15.4499 90.0446 16.9625 90.2378 18.1984L90.2417 18.2238C91.4748 27.6886 91.8865 37.3175 92.3023 42.3448L92.3052 42.379L92.3062 42.4122C92.6134 61.8361 91.3141 74.2888 87.5845 84.1896C83.8584 94.0806 77.6808 101.493 68.0699 110.794L68.0669 110.796C62.7107 115.946 56.9433 120.683 50.9732 124.801L50.9644 124.807L50.9546 124.814C50.1201 125.362 48.7606 125.658 47.3882 125.614H47.3794L47.3658 125.613L47.354 125.614H47.3443C45.9687 125.658 44.6054 125.361 43.771 124.81L43.7622 124.804L43.7544 124.798C37.7859 120.68 32.0196 115.946 26.6646 110.797L26.6617 110.794C17.0507 101.493 10.8731 94.0806 7.14701 84.1896C3.41742 74.2888 2.11808 61.8361 2.42533 42.4122L2.42631 42.379L2.42924 42.3458C2.84507 37.3186 3.25662 27.6891 4.48979 18.2238L4.49369 18.1984C4.68699 16.9624 5.26777 15.4504 6.08061 14.1202C6.90608 12.7696 7.90322 11.7154 8.85795 11.2814L8.86283 11.2794L8.86674 11.2775C21.0407 5.53695 33.2978 2.61081 45.5728 2.39661L45.5796 2.39563L46.7525 2.38391H47.98Z" fill="white"/>
<path d="M47.9595 4.38379L49.1245 4.39453C61.0958 4.60348 73.0755 7.45734 85.0122 13.0859L85.0278 13.0938L85.0357 13.0967L85.0386 13.0986L85.0464 13.1016C85.4678 13.2933 86.2037 13.9495 86.9448 15.1621C87.6443 16.3067 88.1117 17.5665 88.2593 18.4951C89.481 27.8784 89.8818 37.3263 90.3062 42.4766C90.6105 61.8243 89.3029 73.9556 85.7134 83.4844C82.1456 92.9552 76.2251 100.118 66.6782 109.356C61.4007 114.43 55.7217 119.093 49.8501 123.145C49.4744 123.388 48.5741 123.651 47.4507 123.615L47.4067 123.613L47.3657 123.612L47.3247 123.613L47.2808 123.615C46.2891 123.647 45.4729 123.446 45.0366 123.232L44.8735 123.141C39.0036 119.09 33.3263 114.427 28.0503 109.354C18.5052 100.117 12.5865 92.9543 9.01905 83.4844C5.4296 73.9556 4.12002 61.8248 4.42433 42.4775C4.84869 37.3274 5.24944 27.8789 6.4712 18.4951C6.61876 17.5668 7.08807 16.3078 7.78761 15.1631C8.52903 13.9499 9.26475 13.294 9.68605 13.1025L9.69288 13.0986L9.69972 13.0957L9.71046 13.0908L9.70948 13.0898H9.71241L9.72023 13.0859C21.657 7.4573 33.6366 4.60442 45.6079 4.39551L45.6069 4.39453L46.773 4.38379H47.9595Z" fill="#1F1E1F"/>
<path fill-rule="evenodd" clip-rule="evenodd" d="M7 51.1124C7 51.2184 7.4594 52.5398 8.02059 54.0486L9.04143 56.7924L20.7352 62.521L32.4289 68.2498L35.9641 73.4994L39.499 78.7488L39.5704 76.1329C39.6096 74.6942 39.5814 73.2952 39.5078 73.0242C39.4345 72.7532 38.2393 71.1458 36.852 69.4522L34.3301 66.3729L30.4147 64.1932C23.9019 60.5677 8.14127 51.6665 7.55187 51.2807C7.24846 51.0821 7 51.0063 7 51.1124ZM81.1958 54.226C78.0931 55.9871 71.9315 59.4562 67.5036 61.9347L59.4524 66.4416L56.7728 69.8003L54.0929 73.159L54.1071 74.9393C54.1147 75.9183 54.1976 77.1441 54.291 77.6632L54.4608 78.6069L57.8927 73.5078L61.3246 68.4087L68.5622 64.7842C72.5427 62.7907 77.8426 60.1873 80.3395 58.999L84.8793 56.8383L86.0108 53.9072C86.6333 52.2951 87.0738 50.987 86.9897 51.0001C86.9058 51.0134 84.2985 52.4649 81.1958 54.226ZM10.1886 59.453C10.1886 59.7856 11.9999 64.1826 12.2506 64.4583C12.552 64.7901 31.9705 71.4799 32.306 71.3675C32.4201 71.3294 32.2489 70.9106 31.9256 70.4368C31.4147 69.6884 29.9784 68.9122 20.9866 64.5253C9.7228 59.0298 10.1886 59.2485 10.1886 59.453ZM72.9982 64.4992C63.3209 69.261 62.5438 69.6907 61.8892 70.6396L61.1855 71.66L71.3095 68.2074C76.8777 66.3083 81.512 64.6753 81.6081 64.5785C81.7825 64.4023 83.7712 59.7119 83.7712 59.4764C83.7712 59.4079 83.6885 59.3581 83.5872 59.3655C83.4859 59.3729 78.721 61.6832 72.9982 64.4992ZM41.2772 65.4037C40.3069 65.911 40.1122 66.1287 40.1122 66.7062C40.1122 67.562 40.3317 67.8096 40.7685 67.4455C41.0707 67.1937 43.4386 67.2912 43.7131 67.5669C43.7683 67.6223 43.3258 68.7723 42.7298 70.1225L41.6461 72.5771L41.4646 79.6221L41.2834 86.6674L42.4901 87.9752C43.1538 88.6946 44.4263 90.1354 45.3184 91.177L46.9399 93.0712L49.6578 90.012L52.3759 86.9529V79.7687V72.5845L50.3652 68.6779L48.3546 64.7716L45.3983 64.7832C42.7442 64.7933 42.3233 64.8568 41.2772 65.4037ZM14.8974 69.0272C15.6126 70.171 16.3634 71.333 16.5657 71.6097C16.8848 72.0457 17.8463 72.2472 23.8014 73.1265C27.5786 73.6842 31.5835 74.2902 32.7009 74.4732C34.7316 74.806 34.7323 74.806 34.3968 74.2983C34.2121 74.019 33.905 73.7073 33.7142 73.6058C33.4279 73.4533 14.9494 67.3213 13.9163 67.036C13.7407 66.9875 14.1822 67.8835 14.8974 69.0272ZM71.998 69.6778C67.7486 71.1278 63.275 72.6168 62.0565 72.9863C60.5797 73.4339 59.7359 73.8273 59.5255 74.1658C59.3518 74.4449 59.2449 74.7036 59.2881 74.7403C59.331 74.7772 60.8789 74.5535 62.7275 74.2436C64.5764 73.9335 68.5791 73.3176 71.6222 72.8749L77.1556 72.0704L77.8051 70.946C78.1622 70.3277 78.8824 69.1844 79.405 68.4052C79.928 67.626 80.2135 67.0006 80.0398 67.0151C79.8662 67.0296 76.2474 68.2278 71.998 69.6778ZM19.2726 74.4589C19.47 74.6383 20.5495 75.5409 21.6714 76.4647L23.7111 78.144L29.8579 77.6262C33.2388 77.3414 36.0664 77.0468 36.1414 76.9714C36.5594 76.5514 35.0114 76.241 27.5028 75.2389C22.9449 74.6306 19.1475 74.1328 19.0644 74.1328C18.9812 74.1328 19.0749 74.2796 19.2726 74.4589ZM66.1114 75.2879C58.8365 76.2996 57.4323 76.5834 57.8117 76.9645C57.8831 77.0362 60.705 77.3289 64.0829 77.6149L70.2246 78.1349L71.7924 76.8113C72.6546 76.0833 73.7436 75.1881 74.2121 74.8218C74.9006 74.2835 74.97 74.1581 74.5734 74.1675C74.3036 74.1739 70.4957 74.6779 66.1114 75.2879ZM31.037 79.0646C28.6762 79.3115 26.5791 79.5243 26.3768 79.5379C26.1744 79.5512 27.2306 80.1219 28.7238 80.8061L31.439 82.0499L34.4878 80.693C39.2191 78.587 38.563 78.2773 31.037 79.0646ZM56.3349 78.8946C56.1186 79.1563 56.7117 79.5098 59.2753 80.6469L62.4864 82.0715L65.0393 80.8984C66.4432 80.2535 67.5555 79.6891 67.5111 79.6443C67.4138 79.5465 58.0335 78.567 57.1944 78.567C56.8706 78.567 56.4838 78.7146 56.3349 78.8946ZM36.0651 81.6964C34.851 82.3199 33.968 82.8618 34.1029 82.9005C34.2378 82.9392 35.0708 83.1818 35.9543 83.4398L37.5601 83.9088L38.6253 82.9874L39.6905 82.0659L39.1487 81.3019C38.851 80.8817 38.5319 80.5435 38.4399 80.5504C38.3479 80.557 37.2792 81.0728 36.0651 81.6964ZM54.7156 81.1736C54.1964 81.9695 54.3045 82.2504 55.4809 83.1601L56.423 83.8886L58.2599 83.3538L60.097 82.819L57.8355 81.6784C56.592 81.0512 55.4745 80.5378 55.3524 80.5378C55.2302 80.5378 54.9437 80.8238 54.7156 81.1736ZM37.7735 92.9652L34.8743 97.3672L36.4507 98.7837L38.0273 100.2L38.436 99.1759C38.6606 98.6125 39.5569 96.3564 40.4276 94.1625L42.0109 90.1734L41.3417 89.3683L40.6726 88.5633L37.7735 92.9652ZM52.528 89.4688L51.8876 90.3121L53.8768 95.2171C54.9707 97.9151 55.8829 100.143 55.904 100.168C55.9248 100.194 56.6447 99.5809 57.5037 98.8068L59.0653 97.3997L56.3109 93.2182C54.7961 90.9183 53.4694 88.9441 53.3624 88.831C53.2557 88.718 52.8802 89.005 52.528 89.4688ZM41.8271 94.8875C41.1291 96.6828 40.2772 98.9054 39.9341 99.8267L39.3104 101.502L40.6312 102.695C41.3574 103.351 42.0013 103.841 42.0619 103.783C42.1224 103.726 42.6262 101.202 43.1815 98.1757C44.1455 92.9216 44.172 92.6494 43.768 92.1483C43.5352 91.8596 43.289 91.6234 43.2205 91.6234C43.1524 91.6234 42.5252 93.0921 41.8271 94.8875ZM50.2175 92.1868L49.6926 92.7479L50.5236 97.1743C50.9808 99.6087 51.4316 102.127 51.5253 102.771C51.619 103.414 51.7699 103.941 51.8604 103.941C51.9509 103.941 52.6043 103.351 53.3126 102.631L54.6008 101.321L52.7313 96.5338C51.7034 93.9008 50.8354 91.7192 50.8025 91.686C50.7696 91.6527 50.5065 91.8778 50.2175 92.1868ZM45.3983 94.6133C45.2661 94.9969 43.912 102.513 43.6736 104.187C43.5178 105.28 43.535 105.315 44.8798 106.642L46.2441 107.989V101.437C46.2441 95.9379 46.1854 94.8375 45.8791 94.582C45.587 94.3384 45.4908 94.3448 45.3983 94.6133ZM48.0203 94.6185C47.793 94.8468 47.7157 96.5836 47.7157 101.462V108L49.0802 106.63L50.4446 105.259L49.5621 100.227C48.5619 94.5239 48.465 94.1718 48.0203 94.6185Z" fill="#C7C6C9"/>
<path d="M26.6489 21.6417V19.8523H27.1888V14.9422H26.6489V13.1528H33.1057V15.9788H31.1946V14.9422H30.2121V16.7535H31.8425V17.9974H30.2121V19.8523H31.6265V21.6417H26.6489Z" fill="white"/>
<path d="M37.5309 21.7945C36.2136 21.7945 35.195 21.4453 34.4752 20.747C33.7626 20.0487 33.4063 18.9321 33.4063 17.3973C33.4063 15.8624 33.7626 14.7458 34.4752 14.0475C35.195 13.3492 36.2136 13 37.5309 13C38.8481 13 39.8631 13.3492 40.5757 14.0475C41.2955 14.7458 41.6555 15.8624 41.6555 17.3973C41.6555 18.9321 41.2955 20.0487 40.5757 20.747C39.8631 21.4453 38.8481 21.7945 37.5309 21.7945ZM37.5309 19.8523C37.7756 19.8523 37.9592 19.7868 38.0815 19.6559C38.2039 19.525 38.2651 19.3213 38.2651 19.0449V15.7496C38.2651 15.4732 38.2039 15.2695 38.0815 15.1386C37.9592 15.0077 37.7756 14.9422 37.5309 14.9422C37.2861 14.9422 37.1026 15.0077 36.9802 15.1386C36.8578 15.2695 36.7967 15.4732 36.7967 15.7496V19.0449C36.7967 19.3286 36.8578 19.5359 36.9802 19.6668C37.1026 19.7905 37.2861 19.8523 37.5309 19.8523Z" fill="white"/>
<path d="M42.0225 19.8523H42.5623V14.9422H42.0225V13.1528H46.9785C47.907 13.1528 48.6161 13.3455 49.1055 13.7311C49.595 14.1166 49.8397 14.7422 49.8397 15.6078C49.8397 16.0952 49.7426 16.5171 49.5482 16.8735C49.3539 17.2299 49.0767 17.4773 48.7168 17.6155L48.7276 17.7246C49.4187 17.8337 49.7642 18.2629 49.7642 19.0121V19.8523H50.2716V21.6417H46.8489V19.0776C46.8489 18.7939 46.8057 18.5793 46.7193 18.4338C46.6401 18.2883 46.5106 18.1901 46.3306 18.1392C46.1579 18.0883 45.9095 18.0628 45.5856 18.0628V19.8523H46.2982V21.6417H42.0225V19.8523ZM46.1687 16.7317C46.3774 16.7317 46.5322 16.6771 46.6329 16.568C46.7409 16.4516 46.7949 16.2734 46.7949 16.0333V15.6405C46.7949 15.4005 46.7409 15.2259 46.6329 15.1168C46.5322 15.0004 46.3774 14.9422 46.1687 14.9422H45.5856V16.7317H46.1687Z" fill="white"/>
<path d="M55.4523 16.5353V15.7496C55.4523 15.4732 55.3911 15.2695 55.2687 15.1386C55.1463 15.0077 54.9628 14.9422 54.718 14.9422C54.4733 14.9422 54.2897 15.0077 54.1674 15.1386C54.045 15.2695 53.9838 15.4732 53.9838 15.7496V19.0449C53.9838 19.3213 54.045 19.525 54.1674 19.6559C54.2897 19.7868 54.4733 19.8523 54.718 19.8523C54.9628 19.8523 55.1463 19.7868 55.2687 19.6559C55.3911 19.525 55.4523 19.3213 55.4523 19.0449V18.161H58.0436V20.9871C57.7917 21.1616 57.4246 21.3253 56.9423 21.4781C56.46 21.6308 55.9309 21.729 55.3551 21.7727V22.0673C55.679 22.0673 55.9417 22.1546 56.1433 22.3292C56.3448 22.5037 56.4456 22.7583 56.4456 23.0929C56.4456 23.4858 56.3088 23.7876 56.0353 23.9986C55.769 24.2168 55.3983 24.3259 54.9232 24.3259C54.5129 24.3259 54.0702 24.2605 53.5951 24.1295V23.3548C54.0342 23.4567 54.4373 23.5076 54.8044 23.5076C54.9268 23.5076 55.0168 23.4748 55.0743 23.4094C55.1391 23.3439 55.1715 23.2603 55.1715 23.1584C55.1715 23.0566 55.1391 22.9729 55.0743 22.9075C55.0168 22.842 54.9268 22.8093 54.8044 22.8093H54.3293V21.7727C51.8387 21.6054 50.5935 20.1469 50.5935 17.3973C50.5935 14.4658 52.0043 13 54.826 13C55.5098 13 56.1433 13.0837 56.7263 13.251C57.3166 13.4183 57.7557 13.6038 58.0436 13.8074V16.5353H55.4523Z" fill="white"/>
<path d="M66.3757 19.8523H66.8076V21.6417H62.575V19.8523H63.2229L63.0501 18.9794H61.5817L61.4089 19.8523H62.0568V21.6417H58.3641V19.8523H58.796L60.6207 13.1528H64.5509L66.3757 19.8523ZM61.8192 17.8228H62.8126L62.3699 15.6514H62.2619L61.8192 17.8228Z" fill="white"/>
<path d="M27.8261 28.9984H25.3499V27.8636H24.4286V34.4104H25.4363V36.7963H19.3898V34.4104H20.3976V27.8636H19.4762V28.9984H17V25.4777H27.8261V28.9984Z" fill="white"/>
<path d="M38.8865 34.4104H39.4624V36.7963H33.819V34.4104H34.6828L34.4524 33.2465H32.4945L32.2642 34.4104H33.128V36.7963H28.2044V34.4104H28.7802L31.2132 25.4777H36.4535L38.8865 34.4104ZM32.8112 31.7044H34.1357L33.5455 28.8093H33.4015L32.8112 31.7044ZM31.9618 24.6048V24.3865L33.5311 22.9899H37.1446V23.3682L34.7979 24.6048H31.9618Z" fill="white"/>
<path d="M48.9287 28.9984H46.4525V27.8636H45.5312V34.4104H46.5389V36.7963H40.4924V34.4104H41.5002V27.8636H40.5788V28.9984H38.1026V25.4777H48.9287V28.9984Z" fill="white"/>
<path d="M49.4221 36.7963V34.4104H50.142V27.8636H49.4221V25.4777H54.8928V27.8636H54.173V34.4104H54.8928V36.7963H49.4221Z" fill="white"/>
<path d="M61.0533 37C59.2394 37 57.8381 36.5345 56.8496 35.6034C55.8706 34.6723 55.3811 33.1835 55.3811 31.137C55.3811 27.2283 57.2623 25.274 61.0246 25.274C61.9363 25.274 62.7809 25.3855 63.5583 25.6086C64.3453 25.8317 64.9308 26.079 65.3147 26.3506V29.9877H61.8596V28.9402C61.8596 28.5716 61.778 28.3001 61.6148 28.1255C61.4516 27.9509 61.2069 27.8636 60.8806 27.8636C60.5543 27.8636 60.3095 27.9509 60.1464 28.1255C59.9832 28.3001 59.9016 28.5716 59.9016 28.9402V33.3338C59.9016 33.7024 59.9832 33.9739 60.1464 34.1485C60.3095 34.3231 60.5543 34.4104 60.8806 34.4104C61.2069 34.4104 61.4516 34.3231 61.6148 34.1485C61.778 33.9739 61.8596 33.7024 61.8596 33.3338V32.1554H65.3147V35.9234C64.9212 36.195 64.3357 36.4423 63.5583 36.6654C62.7905 36.8885 61.9555 37 61.0533 37Z" fill="white"/>
<path d="M76.4241 34.4104H77V36.7963H71.3566V34.4104H72.2204L71.99 33.2465H70.0321L69.8018 34.4104H70.6656V36.7963H65.742V34.4104H66.3178L68.7508 25.4777H73.9911L76.4241 34.4104ZM70.3488 31.7044H71.6733L71.0831 28.8093H70.9391L70.3488 31.7044Z" fill="white"/>
</svg>
