<svg width="128" height="128" viewBox="0 0 128 128" fill="none" xmlns="http://www.w3.org/2000/svg">
<path fill-rule="evenodd" clip-rule="evenodd" d="M0 18.1795C0 18.3486 0.735045 20.4582 1.63295 22.8671L3.26628 27.2476L21.9763 36.3932L40.6863 45.5391L46.3425 53.9201L51.9984 62.3007L52.1126 58.1244C52.1754 55.8276 52.1302 53.5941 52.0125 53.1615C51.8952 52.7288 49.9828 50.1626 47.7632 47.4588L43.7281 42.5426L37.4636 39.0628C27.0431 33.2748 1.82603 19.064 0.882991 18.4481C0.397542 18.1311 0 18.01 0 18.1795ZM118.713 23.1503C113.749 25.9619 103.89 31.5002 96.8057 35.4571L83.9238 42.6524L79.6364 48.0145L75.3486 53.3766L75.3714 56.2189C75.3835 57.7818 75.5162 59.7388 75.6657 60.5675L75.9373 62.0742L81.4283 53.9335L86.9193 45.7928L98.4995 40.0063C104.868 36.8238 113.348 32.6675 117.343 30.7703L124.607 27.3207L126.417 22.6414C127.413 20.0677 128.118 17.9793 127.984 18.0002C127.849 18.0214 123.678 20.3387 118.713 23.1503ZM5.10173 31.4951C5.10173 32.0261 7.9999 39.0459 8.40097 39.486C8.88328 40.0157 39.9528 50.6959 40.4897 50.5166C40.6722 50.4556 40.3982 49.787 39.881 49.0307C39.0635 47.8359 36.7654 46.5967 22.3785 39.593C4.35648 30.8194 5.10173 31.1687 5.10173 31.4951ZM105.597 39.5513C90.1134 47.1536 88.8701 47.8395 87.8227 49.3544L86.6968 50.9834L102.895 45.4715C111.804 42.4396 119.219 39.8325 119.373 39.6779C119.652 39.3967 122.834 31.9085 122.834 31.5325C122.834 31.4231 122.702 31.3437 122.54 31.3555C122.378 31.3673 114.754 35.0556 105.597 39.5513ZM54.8436 40.9954C53.2911 41.8052 52.9795 42.1529 52.9795 43.0748C52.9795 44.441 53.3307 44.8363 54.0297 44.255C54.5132 43.8531 58.3018 44.0088 58.7409 44.4489C58.8292 44.5374 58.1212 46.3733 57.1676 48.5289L55.4338 52.4476L55.1434 63.6949L54.8534 74.9427L56.7842 77.0306C57.8461 78.179 59.8821 80.4794 61.3094 82.1422L63.9038 85.1662L68.2525 80.2823L72.6015 75.3985V63.929V52.4594L69.3843 46.2226L66.1674 39.9863L61.4374 40.0047C57.1908 40.0209 56.5173 40.1223 54.8436 40.9954ZM12.6358 46.7803C13.7802 48.6064 14.9814 50.4615 15.3052 50.9032C15.8157 51.5993 17.3541 51.921 26.8822 53.3247C32.9258 54.2151 39.3335 55.1826 41.1215 55.4748C44.3705 56.0061 44.3717 56.0061 43.8348 55.1956C43.5393 54.7496 43.048 54.2521 42.7427 54.09C42.2847 53.8466 12.719 44.0568 11.066 43.6014C10.7851 43.5239 11.4914 44.9543 12.6358 46.7803ZM103.997 47.819C97.1977 50.1339 90.04 52.511 88.0904 53.1009C85.7275 53.8155 84.3775 54.4436 84.0408 54.984C83.7629 55.4296 83.5918 55.8425 83.6609 55.9011C83.7296 55.9601 86.2062 55.603 89.1641 55.1083C92.1223 54.6131 98.5265 53.6299 103.396 52.9231L112.249 51.6386L113.288 49.8437C113.86 48.8565 115.012 47.0313 115.848 45.7873C116.685 44.5433 117.142 43.5447 116.864 43.5679C116.586 43.5911 110.796 45.5041 103.997 47.819ZM19.6362 55.452C19.9521 55.7383 21.6792 57.1793 23.4742 58.6542L26.7378 61.3352L36.5727 60.5085C41.9821 60.0539 46.5062 59.5835 46.6263 59.4632C47.295 58.7926 44.8183 58.297 32.8045 56.6971C25.5118 55.7261 19.436 54.9313 19.303 54.9313C19.1699 54.9313 19.3199 55.1657 19.6362 55.452ZM94.5782 56.7754C82.9384 58.3906 80.6917 58.8437 81.2988 59.4521C81.413 59.5666 85.928 60.0338 91.3327 60.4904L101.159 61.3207L103.668 59.2075C105.047 58.0453 106.79 56.6161 107.539 56.0313C108.641 55.172 108.752 54.9718 108.117 54.9867C107.686 54.9969 101.593 55.8016 94.5782 56.7754ZM38.4592 62.8049C34.6819 63.199 31.3266 63.5388 31.0028 63.5605C30.679 63.5817 32.3689 64.4929 34.7581 65.5851L39.1024 67.5708L43.9804 65.4046C51.5506 62.0423 50.5008 61.548 38.4592 62.8049ZM78.9359 62.5336C78.5898 62.9512 79.5387 63.5156 83.6405 65.331L88.7783 67.6054L92.8628 65.7326C95.1092 64.7029 96.8889 63.8019 96.8178 63.7303C96.662 63.5742 81.6536 62.0105 80.311 62.0105C79.793 62.0105 79.1741 62.2461 78.9359 62.5336ZM46.5042 67.0065C44.5616 68.0019 43.1488 68.8671 43.3647 68.9289C43.5805 68.9906 44.9132 69.378 46.3268 69.7898L48.8961 70.5386L50.6005 69.0677L52.3049 67.5964L51.438 66.3768C50.9616 65.7058 50.451 65.1659 50.3038 65.1769C50.1567 65.1875 48.4468 66.011 46.5042 67.0065ZM76.345 66.1719C75.5142 67.4426 75.6873 67.891 77.5694 69.3434L79.0768 70.5063L82.0158 69.6525L84.9552 68.7987L81.3368 66.9777C79.3472 65.9764 77.5592 65.1568 77.3638 65.1568C77.1683 65.1568 76.71 65.6134 76.345 66.1719ZM49.2376 84.9971L44.5989 92.0248L47.1211 94.2862L49.6437 96.5476L50.2976 94.9124C50.657 94.0129 52.091 90.4111 53.4842 86.9085L56.0174 80.54L54.9468 79.2547L53.8762 77.9694L49.2376 84.9971ZM72.8448 79.4152L71.8202 80.7614L75.0029 88.5922C76.7532 92.8995 78.2126 96.4564 78.2464 96.4965C78.2797 96.537 79.4316 95.5589 80.8059 94.3232L83.3046 92.0767L78.8975 85.401C76.4737 81.7293 74.351 78.5774 74.1799 78.3969C74.0092 78.2164 73.4084 78.6746 72.8448 79.4152ZM55.7234 88.066C54.6065 90.9322 53.2436 94.4805 52.6946 95.9514L51.6966 98.6258L53.8099 100.531C54.9719 101.579 56.0021 102.36 56.099 102.268C56.1959 102.176 57.002 98.1472 57.8905 93.3156C59.4328 84.9275 59.4752 84.4929 58.8288 83.693C58.4564 83.232 58.0624 82.8549 57.9529 82.8549C57.8438 82.8549 56.8403 85.1997 55.7234 88.066ZM69.148 83.7543L68.3082 84.6502L69.6378 91.7169C70.3693 95.6034 71.0906 99.624 71.2405 100.651C71.3904 101.679 71.6318 102.519 71.7766 102.519C71.9214 102.519 72.9669 101.578 74.1002 100.428L76.1613 98.3371L73.1702 90.6943C71.5254 86.4908 70.1366 83.0079 70.084 82.9548C70.0314 82.9017 69.6103 83.2611 69.148 83.7543ZM61.4374 87.6282C61.2258 88.2406 59.0592 100.239 58.6777 102.913C58.4285 104.657 58.456 104.713 60.6077 106.832L62.7905 108.982V98.5228C62.7905 89.7429 62.6967 87.9861 62.2066 87.5783C61.7392 87.1893 61.5853 87.1995 61.4374 87.6282ZM65.6326 87.6365C65.2688 88.0011 65.1451 90.7738 65.1451 98.5625V109L67.3283 106.812L69.5114 104.625L68.0994 96.5909C66.4991 87.4855 66.3441 86.9235 65.6326 87.6365Z" fill="white"/>
</svg>
