<svg width="438" height="316" viewBox="0 0 438 316" fill="none" xmlns="http://www.w3.org/2000/svg">
<path fill-rule="evenodd" clip-rule="evenodd" d="M214.202 0.620747C193.062 2.95975 175.422 8.28576 154.702 18.5838C136.848 27.4578 124.578 36.2387 110.727 50.0557C96.7744 63.9747 88.1534 76.0967 78.7254 95.0557C70.8194 110.953 66.4324 123.345 63.5024 138.056C60.7504 151.877 61.0574 187.282 64.0514 201.305C65.8354 209.658 71.2014 226.585 74.6394 234.703C75.2564 236.159 74.0224 236.417 64.0204 236.923C57.7954 237.238 41.9024 237.731 28.7024 238.017C-6.26361 238.776 -7.43061 238.912 15.2024 239.58C39.7974 240.307 388.93 240.296 421.702 239.567C448.018 238.982 441.355 237.904 409.747 237.634C399.872 237.549 391.593 237.28 391.349 237.036C391.105 236.792 392.376 232.872 394.173 228.324C407.308 195.098 408.415 151.5 396.999 117.056C392.961 104.873 385.698 90.0207 378.17 78.5557C350.997 37.1717 309.703 10.0197 261.702 1.97673C250.448 0.0907346 225.439 -0.623253 214.202 0.620747ZM234.202 5.90273V10.2497L223.452 10.8737C203.657 12.0217 185.485 16.2708 168.412 23.7428C163.302 25.9788 158.991 27.6398 158.83 27.4318C157.247 25.3868 155.202 21.9577 155.202 21.3477C155.202 20.0807 166.212 14.9287 176.768 11.2567C192.887 5.64873 212.593 1.88273 226.952 1.66573L234.202 1.55574V5.90273ZM263.882 4.60274C270.031 5.67274 279.759 8.08575 285.498 9.96575C295.744 13.3217 314.842 21.8707 318.62 24.7917C320.502 26.2467 320.497 26.3317 318.351 29.3467L316.163 32.4188L304.933 27.0427C286.363 18.1527 271.101 13.8317 249.952 11.4777L239.202 10.2818V5.80175V1.32274L245.952 1.98974C249.664 2.35674 257.733 3.53274 263.882 4.60274ZM263.202 15.5287C289.489 20.3917 318.282 33.8357 334.853 48.9847L339.702 53.4167L331.202 62.0607C326.527 66.8157 318.475 74.1588 313.308 78.3808C308.142 82.6018 302.742 87.0517 301.308 88.2697C299.875 89.4877 298.388 90.4997 298.005 90.5197C297.622 90.5397 294.313 88.2888 290.653 85.5188C273.049 72.1948 250.306 65.6068 226.304 66.8808C199.875 68.2838 177.715 78.2968 158.818 97.3758C137.969 118.425 128.173 142.275 128.215 171.878C128.232 183.987 130.987 196.83 136.193 209.081C138.525 214.567 140.663 220.589 140.945 222.462C141.4 225.49 141.249 225.782 139.58 225.094C136.396 223.781 131.202 223.443 131.202 224.548C131.202 225.12 129.964 225.575 128.452 225.559C123.961 225.512 122.202 225.839 122.202 226.723C122.202 227.181 121.527 227.556 120.702 227.556C119.877 227.556 119.202 228.081 119.202 228.723C119.202 229.364 118.898 229.585 118.526 229.214C118.154 228.842 116.886 229.444 115.707 230.551C114.276 231.895 111.926 232.651 108.633 232.827C105.921 232.971 103.11 233.464 102.385 233.923C100.795 234.929 99.4524 233.878 100.769 232.658C101.282 232.182 108.339 228.252 116.452 223.924C124.564 219.597 131.202 215.719 131.202 215.306C131.202 214.076 128.515 214.435 110.746 218.039C101.421 219.931 93.6134 221.301 93.3964 221.084C92.3984 220.085 94.6914 218.486 98.9954 217.177C101.584 216.389 108.731 213.928 114.877 211.707C124.547 208.213 126.215 207.867 127.269 209.137C129.509 211.835 129.21 209.973 125.803 199.98C120.971 185.812 121.178 186.231 119.834 187.912C118.09 190.093 88.4544 200.771 86.1634 200.044C83.5454 199.213 83.6154 199.764 87.8044 212.824C91.5414 224.475 92.7564 226.855 93.9944 224.947C94.3834 224.347 95.6734 223.345 96.8594 222.72C99.3724 221.398 116.218 218.54 116.169 219.444C116.15 219.781 111.821 222.203 106.547 224.828C99.0794 228.544 96.6544 229.346 95.5814 228.455C94.4594 227.525 94.2024 227.894 94.2024 230.434C94.2024 233.187 93.8714 233.556 91.4014 233.556C89.0514 233.556 88.2294 232.792 86.2894 228.806C82.5864 221.195 78.5264 206.809 76.1644 192.933C74.2884 181.91 74.0534 177.68 74.5284 163.556C75.1474 145.186 76.4954 137.598 82.1854 120.451C98.8054 70.3697 140.144 31.7028 191.753 17.9668C213.653 12.1378 240.01 11.2377 263.202 15.5287ZM219.217 18.7468C219.239 20.5658 220.41 22.0937 222.32 22.7967C223.798 23.3407 228.224 36.7867 228.189 40.6237C228.154 44.2967 223.28 57.0797 221.799 57.3787C218.762 57.9937 220.215 59.5557 223.824 59.5557C226.743 59.5557 227.23 59.2947 226.332 58.2118C225.504 57.2148 225.611 55.5417 226.748 51.7118C227.59 48.8758 228.635 46.5557 229.069 46.5557C229.503 46.5557 230.396 48.8847 231.053 51.7327C231.998 55.8237 231.987 57.0708 231.004 57.6778C228.832 59.0208 230.416 59.3047 242.952 59.8217C254.054 60.2787 257.041 59.8107 254.202 58.0557C253.599 57.6837 253.202 50.7477 253.202 40.6037C253.202 26.5627 253.451 23.6737 254.702 23.1937C255.527 22.8777 256.203 22.0418 256.204 21.3368C256.205 20.3528 253.588 20.1268 244.911 20.3628L233.617 20.6698L233.979 23.8628C234.178 25.6188 233.67 28.6307 232.849 30.5557L231.357 34.0557L230.288 31.2617C228.373 26.2617 228.019 23.7867 229.121 23.1057C231.649 21.5427 229.977 20.3728 225.702 20.7128C222.673 20.9528 221.202 20.6788 221.202 19.8718C221.202 19.2128 220.752 18.3957 220.202 18.0557C219.652 17.7157 219.209 18.0268 219.217 18.7468ZM204.288 20.0557C204.318 21.1557 204.729 22.9557 205.202 24.0557C205.989 25.8877 206.066 25.8457 206.116 23.5557C206.147 22.1807 205.735 20.3807 205.202 19.5557C204.402 18.3177 204.242 18.4047 204.288 20.0557ZM267.702 22.5557C267.327 23.7387 267.244 24.9317 267.519 25.2067C267.794 25.4817 268.327 24.7387 268.702 23.5557C269.077 22.3727 269.16 21.1797 268.885 20.9047C268.61 20.6297 268.077 21.3727 267.702 22.5557ZM189.812 24.0557C190.635 27.7327 191.207 28.5307 191.187 25.9727C191.178 24.9187 190.715 23.3807 190.156 22.5557C189.415 21.4607 189.322 21.8647 189.812 24.0557ZM240.969 31.5667C241.307 42.2997 240.004 57.5677 238.738 57.7137C237.376 57.8717 236.666 56.1807 234.123 46.7327C231.919 38.5447 231.912 38.3177 233.667 32.7327C236.668 23.1887 237.091 22.3877 238.955 22.7437C240.428 23.0257 240.744 24.4087 240.969 31.5667ZM248.976 40.3877C249.236 56.7357 249.158 57.5557 247.333 57.5557C246.278 57.5557 245.143 56.8438 244.809 55.9748C244.185 54.3478 245.041 26.1087 245.786 23.7227C246.016 22.9897 246.765 22.5767 247.453 22.8047C248.373 23.1107 248.774 27.7467 248.976 40.3877ZM152.761 26.6707C153.647 28.3837 153.996 30.1167 153.537 30.5217C153.078 30.9277 147.752 34.5797 141.702 38.6377C129.51 46.8167 113.155 62.0027 105.036 72.6807C102.162 76.4617 99.4264 79.5557 98.9564 79.5557C97.4624 79.5557 92.2024 76.5367 92.2024 75.6787C92.2024 73.6667 103.412 60.1588 113.107 50.4888C120.566 43.0488 127.369 37.4988 136.089 31.7388C142.902 27.2378 149.078 23.5557 149.814 23.5557C150.549 23.5557 151.875 24.9577 152.761 26.6707ZM281.702 25.5557C281.327 26.7387 281.244 27.9317 281.519 28.2067C281.794 28.4817 282.327 27.7387 282.702 26.5557C283.077 25.3727 283.16 24.1797 282.885 23.9047C282.61 23.6297 282.077 24.3727 281.702 25.5557ZM176.199 28.6057C176.197 29.4037 173.722 31.3897 170.699 33.0207C165.627 35.7567 163.824 37.5557 166.155 37.5557C167.179 37.5557 169.187 43.7977 169.196 47.0087C169.201 48.6227 168.516 48.2917 165.25 45.1027C162.039 41.9677 161.483 40.8987 162.285 39.3997C163.619 36.9067 162.211 37.0267 157.509 39.8057C154.343 41.6767 154.039 42.1167 155.702 42.4157C156.802 42.6137 160.465 45.8588 163.843 49.6258C169.436 55.8648 170.135 57.1558 171.68 64.1008C172.613 68.2948 173.103 72.8127 172.77 74.1407C172.035 77.0687 173.19 77.2137 176.341 74.5887C178.176 73.0597 178.34 72.6147 177.075 72.5887C175.926 72.5657 174.994 70.7537 173.904 66.4247L172.359 60.2938L176.782 64.6338C179.845 67.6408 181.029 69.5247 180.635 70.7657C180.144 72.3147 180.406 72.4288 182.572 71.6048C187.955 69.5588 195.202 65.4698 195.202 64.4798C195.202 63.9068 194.768 63.7057 194.238 64.0337C193.033 64.7787 190.207 60.2897 182.403 45.2327C177.199 35.1927 176.455 33.1237 177.464 31.5077C178.386 30.0317 178.378 29.3318 177.427 28.3808C176.46 27.4138 176.201 27.4617 176.199 28.6057ZM337.864 37.4437C352.284 48.3497 373.161 71.7147 379.384 83.9117L381.412 87.8888L379.057 89.6998C377.762 90.6958 376.203 91.5217 375.594 91.5337C374.984 91.5457 372.776 88.9687 370.687 85.8057C364.697 76.7357 358.865 69.4267 350.655 60.6987C346.471 56.2517 343.331 52.1558 343.677 51.5958C344.035 51.0168 343.693 50.8137 342.882 51.1247C342.075 51.4347 339.359 49.8558 336.619 47.4838C333.958 45.1808 329.401 41.7157 326.491 39.7847C323.582 37.8527 321.202 35.8427 321.202 35.3187C321.202 34.7937 321.957 33.0867 322.879 31.5257C324.471 28.8307 324.694 28.7587 327.291 30.1017C328.796 30.8797 333.554 34.1837 337.864 37.4437ZM295.202 31.5557C294.563 32.7497 294.265 33.9517 294.54 34.2267C294.815 34.5017 295.563 33.7497 296.202 32.5557C296.841 31.3617 297.139 30.1598 296.864 29.8848C296.589 29.6098 295.841 30.3617 295.202 31.5557ZM180.639 50.9677C184.799 58.8727 188.202 65.6137 188.202 65.9477C188.202 66.2817 187.413 66.5557 186.448 66.5557C185.484 66.5557 181.704 63.2077 178.049 59.1147C171.76 52.0737 171.338 51.2878 170.191 44.4928C169.204 38.6388 169.223 37.1607 170.293 36.4997C171.016 36.0527 171.937 35.8917 172.341 36.1417C172.745 36.3917 176.479 43.0627 180.639 50.9677ZM306.713 41.5897C307.514 44.1127 290.793 71.5888 288.014 72.3148C285.476 72.9788 285.748 73.8557 289.106 75.8397C292.705 77.9657 294.603 78.0427 293.831 76.0297C293.482 75.1207 296.54 69.1637 301.404 61.2797C311.196 45.4077 311.907 44.5097 314.046 45.3107C316.736 46.3167 313.437 42.7287 310.074 40.9897C306.406 39.0927 305.946 39.1747 306.713 41.5897ZM146.108 45.3797C146.715 46.5147 147.705 47.7487 148.307 48.1207C149.091 48.6057 149.088 48.2117 148.296 46.7317C147.689 45.5967 146.699 44.3627 146.097 43.9907C145.313 43.5057 145.316 43.8997 146.108 45.3797ZM325.443 50.5417C324.76 51.6347 324.202 52.7868 324.202 53.1008C324.202 54.1618 326.182 52.4607 327.232 50.4997C328.601 47.9427 327.043 47.9787 325.443 50.5417ZM135.166 55.3917C135.825 56.6757 136.638 57.4528 136.973 57.1178C137.309 56.7828 136.77 55.7318 135.776 54.7818C134.048 53.1318 134.021 53.1587 135.166 55.3917ZM350.169 63.3057C370.511 85.2457 383.757 110.671 389.896 139.556C392.467 151.658 392.449 183.213 389.862 196.524C387.788 207.195 382.602 223.721 378.814 231.727L376.288 237.067L361.495 236.784C353.359 236.628 343.552 236.005 339.702 235.4C335.852 234.795 329.552 234.1 325.702 233.857C315.212 233.193 315.202 233.191 315.202 232.283C315.202 231.818 314.792 231.692 314.29 232.002C313.788 232.312 312.01 230.838 310.338 228.727C307.332 224.932 304.392 223.827 302.967 225.957C302.51 226.641 302.227 226.417 302.217 225.363C302.207 224.218 301.562 223.794 300.223 224.052C299.135 224.262 297.978 224.003 297.654 223.478C297.329 222.953 296.645 222.782 296.133 223.099C295.621 223.415 295.202 222.917 295.202 221.993C295.202 220.672 294.904 220.558 293.814 221.463C292.765 222.334 291.788 222.324 289.814 221.425C288.377 220.771 287.202 219.831 287.202 219.336C287.202 218.842 286.745 218.721 286.186 219.066C285.627 219.412 285.372 220.022 285.62 220.423C285.867 220.824 285.657 221.805 285.151 222.604C284.469 223.682 284.211 223.283 284.15 221.056C284.069 218.139 284.036 218.119 282.963 220.347C282.356 221.607 281.299 222.423 280.614 222.16C279.928 221.897 279.073 222.441 278.713 223.369C278.118 224.904 277.93 224.881 276.631 223.115C275.334 221.353 275.202 221.336 275.202 222.936C275.202 225.456 272.251 228.254 271.27 226.665C270.474 225.378 268.11 225.5 267.097 226.88C266.765 227.333 265.752 226.963 264.847 226.058C263.518 224.729 263.202 224.688 263.202 225.846C263.202 226.844 262.425 227.13 260.644 226.79C258.995 226.474 258.273 225.813 258.613 224.928C259.271 223.213 256.557 223.092 255.861 224.806C255.48 225.747 255.092 225.685 254.293 224.556C253.382 223.267 253.23 223.307 253.217 224.845C253.203 226.554 253.115 226.553 251.252 224.817C250.179 223.818 248.858 221.888 248.315 220.528C247.433 218.317 247.314 218.532 247.184 222.556L247.04 227.056L245.265 223.252C244.251 221.079 243.653 217.969 243.869 216.002C244.082 214.071 243.799 212.556 243.226 212.556C242.663 212.556 242.202 213.006 242.202 213.556C242.202 214.106 241.704 214.556 241.095 214.556C240.486 214.556 240.247 213.881 240.564 213.056C240.88 212.231 240.703 211.556 240.171 211.556C239.638 211.556 239.202 212.037 239.202 212.626C239.202 213.214 238.189 213.551 236.952 213.376C234.444 213.019 233.95 210.606 235.228 204.942C236.035 201.362 235.062 200.625 232.202 202.647C231.073 203.446 231.011 203.834 231.952 204.215C232.687 204.514 233.202 206.543 233.202 209.139C233.202 212.889 232.9 213.556 231.202 213.556C229.534 213.556 229.183 212.851 229.087 209.306L228.972 205.056L228.227 208.91C227.818 211.03 226.96 213.087 226.321 213.482C225.683 213.877 225.227 215.968 225.308 218.128C225.589 225.556 225.329 226.556 223.114 226.556C221.214 226.556 221.09 226.174 221.73 222.306C222.117 219.969 222.832 217.298 223.318 216.372C224.579 213.97 224.467 202.599 223.202 204.556C222.669 205.381 222.226 207.616 222.217 209.523C222.2 213.417 219.392 221.556 218.066 221.556C217.591 221.556 217.202 220.566 217.202 219.356C217.202 217.733 216.908 217.45 216.083 218.275C215.468 218.89 214.989 221.221 215.02 223.455C215.075 227.418 213.927 229.539 212.755 227.641C212.433 227.12 212.553 226.457 213.022 226.167C213.49 225.878 213.76 224.609 213.621 223.348C213.482 222.088 213.324 220.381 213.27 219.556C213.182 218.223 213.064 218.223 212.202 219.556C211.556 220.556 211.228 220.639 211.217 219.806C211.192 217.701 209.473 218.418 208.819 220.806C208.307 222.671 208.038 222.8 207.242 221.561C206.417 220.277 206.068 220.347 204.773 222.061C203.944 223.158 203.251 223.508 203.234 222.837C203.216 222.167 202.566 221.863 201.789 222.161C200.957 222.48 200.188 221.953 199.917 220.879C199.555 219.443 199.171 219.746 198.11 222.306C196.439 226.34 195.202 226.482 195.202 222.639C195.202 218.85 193.028 218.155 191.533 221.467C190.384 224.013 190.363 223.994 190.283 220.306C190.196 216.295 188.941 215.458 187.282 218.306C186.721 219.268 186.249 219.632 186.232 219.115C186.216 218.597 185.541 219.047 184.734 220.115C183.405 221.871 183.263 221.889 183.234 220.306C183.197 218.29 181.611 217.956 180.864 219.806C180.563 220.553 180.328 220.351 180.281 219.306C180.238 218.344 179.724 217.556 179.139 217.556C178.555 217.556 178.217 218.527 178.389 219.713C178.561 220.899 178.172 222.051 177.524 222.272C176.853 222.502 176.183 221.466 175.967 219.865L175.588 217.056L174.397 219.866C172.995 223.174 170.796 222.459 171.474 218.915C171.727 217.591 171.544 216.267 171.068 215.973C170.592 215.679 170.202 216.14 170.202 216.997C170.202 217.854 169.64 218.592 168.952 218.635C167.952 218.698 167.952 218.815 168.952 219.218C170.654 219.905 170.536 221.556 168.785 221.556C168.006 221.556 167.14 222.119 166.861 222.806C166.48 223.747 166.092 223.685 165.293 222.556C164.35 221.223 164.222 221.223 164.141 222.556C164.091 223.381 163.522 222.609 162.876 220.84C162.028 218.517 161.325 217.857 160.345 218.465C159.393 219.055 159.32 219.511 160.103 219.995C160.887 220.479 160.791 221.109 159.781 222.12C157.511 224.39 156.897 223.826 157.512 220.034C157.851 217.944 157.701 216.748 157.143 217.093C156.625 217.412 156.201 219.335 156.2 221.365C156.198 224.749 155.749 224.162 150.812 214.317C143.425 199.586 140.962 190.137 140.449 174.556C139.91 158.177 142.033 146.458 147.965 133.076C160.786 104.149 183.929 85.8447 216.292 79.0367C232.766 75.5717 256.105 78.9947 272.935 87.3447C280.566 91.1307 290.202 97.2807 290.202 98.3657C290.202 99.3737 268.184 120.102 259.48 127.286C256.058 130.111 249.983 134.537 245.98 137.122C236.123 143.486 233.072 146.126 230.619 150.415C228.903 153.416 227.893 154.111 224.871 154.366C221.592 154.644 220.984 154.301 219.108 151.12C217.28 148.022 209.894 143.349 207.38 143.699C205.614 143.944 204.79 143.467 205.813 142.791C206.501 142.335 201.237 136.356 191.958 127.056C178.755 113.823 177.895 113.116 184.661 121.056C188.88 126.006 195.998 134.913 200.48 140.85C205.939 148.081 210.321 152.768 213.754 155.047L218.88 158.449L217.791 164.403C217.192 167.677 215.966 171.188 215.066 172.206C212.906 174.649 208.202 184.088 208.202 185.981C208.202 187.154 209.609 186.841 214.802 184.511C218.432 182.883 222.702 180.624 224.292 179.492C225.882 178.359 228.176 177.358 229.39 177.267C230.603 177.175 233.308 175.473 235.399 173.483C238.841 170.209 239.202 169.378 239.202 164.723V159.58L243.257 158.931C248.99 158.015 253.278 154.768 254.867 150.14C256.712 144.768 262.697 137.094 274.774 124.614C280.393 118.807 287.118 111.469 289.719 108.306C292.319 105.143 294.7 102.556 295.01 102.556C295.32 102.556 297.844 104.469 300.62 106.806L305.666 111.056L301.473 105.556C297.792 100.727 297.459 99.8767 298.744 98.5887C300.028 97.3007 300.953 97.8487 306.344 103.089C313.05 109.609 313.102 109.013 306.575 100.446L302.3 94.8357L305.369 91.9458C307.056 90.3558 312.985 83.8807 318.545 77.5557C333.079 61.0197 339.328 54.5557 340.782 54.5557C341.483 54.5557 345.707 58.4937 350.169 63.3057ZM337.857 59.3848C336.034 61.3988 335.632 63.0257 337.197 62.0587C338.24 61.4147 340.549 57.5557 339.892 57.5557C339.683 57.5557 338.767 58.3788 337.857 59.3848ZM123.702 64.5557C124.697 65.6557 125.737 66.5557 126.012 66.5557C126.287 66.5557 125.697 65.6557 124.702 64.5557C123.707 63.4557 122.667 62.5557 122.392 62.5557C122.117 62.5557 122.707 63.4557 123.702 64.5557ZM346.702 70.5557C345.707 71.6557 345.342 72.5557 345.892 72.5557C346.442 72.5557 347.707 71.6557 348.702 70.5557C349.697 69.4557 350.062 68.5557 349.512 68.5557C348.962 68.5557 347.697 69.4557 346.702 70.5557ZM241.807 71.0048C257.491 72.1148 273.163 77.7577 288.303 87.7447C292.647 90.6117 296.202 93.2608 296.202 93.6338C296.202 94.0058 295.552 94.8498 294.758 95.5088C293.594 96.4748 292.191 95.9447 287.508 92.7667C260.1 74.1697 227.667 70.3257 196.714 82.0077C176.241 89.7347 156.343 108.511 146.258 129.62C139.537 143.689 137.702 152.483 137.72 170.556C137.738 189.171 139.535 196.875 147.868 214.051C153.653 225.976 153.952 227.054 151.712 227.914C150.705 228.3 150.015 227.658 149.581 225.931C149.229 224.526 147.877 222.229 146.578 220.828C141.834 215.709 136.388 202.111 133.629 188.492C131.331 177.153 132.1 155.314 135.174 144.623C139.775 128.617 148.51 113.502 160.378 101.007C172.643 88.0957 187.739 78.9578 204.972 74.0148C213.365 71.6068 227.498 69.5648 231.702 70.1518C232.802 70.3058 237.349 70.6888 241.807 71.0048ZM112.202 74.2787C112.202 75.5367 115.06 78.0308 115.732 77.3588C115.997 77.0938 115.312 76.0598 114.208 75.0618C113.105 74.0628 112.202 73.7107 112.202 74.2787ZM93.2844 82.6147L96.1754 84.6728L93.1054 89.8647C82.5864 107.648 77.2764 123.85 72.6414 152.306C72.1364 155.405 71.9054 155.556 67.6764 155.556H63.2404L63.8234 150.806C65.7544 135.07 71.1754 115.514 77.6164 101.056C81.3214 92.7377 88.3694 80.5557 89.4764 80.5557C89.9804 80.5557 91.6944 81.4817 93.2844 82.6147ZM105.316 87.5878C102.525 91.5608 100.498 95.2257 100.811 95.7327C101.146 96.2747 101.904 96.2177 102.655 95.5947C103.575 94.8317 106.411 95.2867 112.816 97.2277C117.703 98.7077 122.343 100.4 123.125 100.988C123.908 101.575 127.152 105.324 130.333 109.319C135.559 115.88 136.219 116.393 137.16 114.634C138.539 112.057 138.474 111.514 136.86 112.134C135.455 112.673 127.541 103.883 128.536 102.889C129.447 101.977 138.357 105.386 139.636 107.135C140.674 108.555 141.148 108.316 143.56 105.153L146.304 101.556H143.554C142.041 101.556 136.569 100.333 131.394 98.8378C122.595 96.2968 121.702 95.7898 117.63 91.0228C115.235 88.2198 112.626 84.6747 111.833 83.1447L110.389 80.3628L105.316 87.5878ZM355.643 82.0237C354.576 82.8317 354.178 83.5067 354.761 83.5237C355.343 83.5417 356.693 82.8948 357.761 82.0878C358.828 81.2798 359.226 80.6048 358.643 80.5878C358.061 80.5698 356.711 81.2167 355.643 82.0237ZM113.684 88.5377C115.822 90.7277 117.308 92.7837 116.984 93.1067C116.141 93.9497 108.377 91.4718 107.121 89.9578C106.023 88.6358 107.468 84.5557 109.034 84.5557C109.453 84.5557 111.546 86.3477 113.684 88.5377ZM360.202 93.8198C360.202 94.5148 353.135 98.9938 344.498 103.773C332.714 110.293 328.47 112.193 327.498 111.386C325.131 109.422 326.046 112.827 329.769 119.839C333.085 126.083 335.679 128.637 334.996 124.985C334.562 122.667 364.955 105.921 367.131 107.278C367.995 107.818 369.602 107.907 370.702 107.478C372.377 106.824 372.42 106.685 370.965 106.626C369.847 106.581 367.97 104.059 365.702 99.5557C362.446 93.0907 360.202 90.7498 360.202 93.8198ZM388.015 99.9737C395.029 114.657 400.443 134.319 401.669 149.556C402.001 153.681 402.514 159.419 402.809 162.306L403.346 167.556H399.476H395.605L394.418 155.679C392.652 138.014 387.868 121.026 378.846 100.386L377.242 96.7168L380.472 94.7818C382.249 93.7178 383.977 92.9938 384.313 93.1738C384.649 93.3548 386.315 96.4147 388.015 99.9737ZM363.889 101.116C364.218 102.104 359.345 105.04 339.955 115.539C333.324 119.129 332.117 119.499 331.581 118.102C331.237 117.204 331.22 116.205 331.544 115.881C333.3 114.125 360.923 99.6087 362.119 99.8137C362.899 99.9467 363.695 100.533 363.889 101.116ZM92.7524 105.444C93.2744 105.932 94.8274 106.626 96.2024 106.985L98.7024 107.639L96.2024 106.133C93.4164 104.454 91.2254 104.016 92.7524 105.444ZM278.202 116.497C278.202 117.677 276.252 118.939 275.535 118.223C274.819 117.506 276.081 115.556 277.261 115.556C277.779 115.556 278.202 115.979 278.202 116.497ZM87.2024 119.461C87.2024 120.291 91.3044 121.787 91.9134 121.179C92.0764 121.015 91.0844 120.367 89.7064 119.74C88.3294 119.112 87.2024 118.987 87.2024 119.461ZM375.702 120.556C374.441 121.098 374.257 121.415 375.202 121.415C376.027 121.415 377.602 121.029 378.702 120.556C379.963 120.014 380.147 119.697 379.202 119.697C378.377 119.697 376.802 120.083 375.702 120.556ZM83.2024 134.556C84.0274 135.089 85.6024 135.525 86.7024 135.525C88.3584 135.525 88.4444 135.359 87.2024 134.556C86.3774 134.023 84.8024 133.587 83.7024 133.587C82.0464 133.587 81.9604 133.753 83.2024 134.556ZM379.952 135.218C380.64 135.496 381.765 135.496 382.452 135.218C383.14 134.941 382.577 134.714 381.202 134.714C379.827 134.714 379.265 134.941 379.952 135.218ZM247.881 145.02C247.353 146.608 244.202 146.885 244.202 145.344C244.202 144.596 245.107 143.985 246.214 143.985C247.32 143.985 248.071 144.451 247.881 145.02ZM251.864 146.806C251.587 147.494 251.36 146.931 251.36 145.556C251.36 144.181 251.587 143.619 251.864 144.306C252.142 144.994 252.142 146.119 251.864 146.806ZM82.2024 148.615C82.2024 150.492 82.6074 151.424 83.2494 151.027C84.5734 150.209 94.2024 152.466 94.2024 153.594C94.2024 154.631 85.7454 155.978 83.8364 155.246C82.7664 154.835 82.2864 156.33 81.7534 161.731C81.0614 168.758 81.5634 171.208 83.1654 168.616C83.8654 167.484 87.2414 167.351 101.855 167.88C112.459 168.263 119.829 168.936 120.03 169.54C120.968 172.354 122.202 169.947 122.2 165.306C122.198 160.281 122.08 160.05 119.45 159.915C116.485 159.763 108.703 156.722 109.426 155.999C110.593 154.832 119.791 153.8 120.89 154.712C121.764 155.438 122.266 154.733 122.763 152.083C123.447 148.435 122.686 146.237 121.398 148.143C121.015 148.708 116.202 150.111 110.702 151.26C100.728 153.343 100.687 153.343 94.7024 151.398C91.4024 150.326 87.4834 148.573 85.9924 147.502C82.4344 144.946 82.2024 145.015 82.2024 148.615ZM383.202 149.556L380.702 150.357L383.393 150.456C384.873 150.511 386.362 150.106 386.702 149.556C387.405 148.419 386.751 148.419 383.202 149.556ZM216.857 152.099C217.183 152.948 217.179 153.912 216.85 154.242C216.137 154.954 213.202 152.694 213.202 151.434C213.202 149.924 216.234 150.477 216.857 152.099ZM247.202 153.556C247.202 154.106 246.752 154.556 246.202 154.556C245.652 154.556 245.202 154.106 245.202 153.556C245.202 153.006 245.652 152.556 246.202 152.556C246.752 152.556 247.202 153.006 247.202 153.556ZM112.155 159.472C124.244 164.013 122.893 164.901 105.075 164.123C87.4234 163.352 84.2024 162.89 84.2024 161.13C84.2024 160.333 87.2604 159.3 92.4524 158.344C103.622 156.286 103.68 156.289 112.155 159.472ZM344.169 160.806C344.151 162.594 343.875 168.443 343.557 173.806C343.186 180.056 343.339 183.556 343.983 183.556C344.536 183.556 345.247 182.881 345.564 182.056C346.045 180.802 349.003 180.556 363.612 180.556C374.181 180.556 381.328 180.951 381.702 181.556C383.18 183.948 383.946 182.036 384.527 174.499C385.193 165.866 384.476 157.556 383.066 157.556C382.591 157.556 382.202 158.231 382.202 159.056C382.202 160.334 379.535 160.556 364.202 160.556C348.869 160.556 346.202 160.334 346.202 159.056C346.202 158.231 345.752 157.556 345.202 157.556C344.652 157.556 344.187 159.018 344.169 160.806ZM72.3324 175.556C73.0334 191.682 75.3694 203.967 80.8694 220.455C84.5674 231.54 84.5334 231.821 79.3454 233.2C76.4554 233.968 76.1184 233.469 72.1464 222.556C65.9324 205.483 63.2024 190.051 63.2024 172.005V160.441L67.4524 160.749L71.7024 161.056L72.3324 175.556ZM232.002 162.756C234.123 164.877 233.444 168.457 230.795 169.122C227.978 169.829 224.202 168.094 224.202 166.092C224.202 162.563 229.53 160.284 232.002 162.756ZM227.202 165.556C227.202 166.106 227.877 166.556 228.702 166.556C229.527 166.556 230.202 166.106 230.202 165.556C230.202 165.006 229.527 164.556 228.702 164.556C227.877 164.556 227.202 165.006 227.202 165.556ZM382.202 166.556C382.202 168.482 381.535 168.556 364.202 168.556C346.869 168.556 346.202 168.482 346.202 166.556C346.202 164.63 346.869 164.556 364.202 164.556C381.535 164.556 382.202 164.63 382.202 166.556ZM217.885 173.744C217.566 174.541 217.329 174.304 217.281 173.139C217.238 172.085 217.474 171.495 217.806 171.827C218.138 172.159 218.174 173.022 217.885 173.744ZM382.202 174.556C382.202 176.482 381.535 176.556 364.202 176.556C346.869 176.556 346.202 176.482 346.202 174.556C346.202 172.63 346.869 172.556 364.202 172.556C381.535 172.556 382.202 172.63 382.202 174.556ZM402.656 179.306C400.884 199.171 395.801 220.366 389.886 232.556C387.85 236.751 387.408 237.077 383.365 237.368C379.24 237.664 379.063 237.566 379.743 235.368C380.137 234.096 381.253 231.48 382.224 229.554C384.607 224.828 389.764 207.781 391.602 198.556C392.869 192.197 395.202 175.851 395.202 173.332C395.202 172.905 397.015 172.556 399.23 172.556H403.258L402.656 179.306ZM221.702 175.556C222.042 176.106 221.592 176.556 220.702 176.556C219.812 176.556 219.362 176.106 219.702 175.556C220.042 175.006 220.492 174.556 220.702 174.556C220.912 174.556 221.362 175.006 221.702 175.556ZM216.702 178.556C217.042 179.106 216.843 179.556 216.261 179.556C215.679 179.556 215.202 179.106 215.202 178.556C215.202 178.006 215.4 177.556 215.643 177.556C215.886 177.556 216.362 178.006 216.702 178.556ZM79.6774 179.596C79.2564 180.278 80.0104 180.402 81.8684 179.955C85.7004 179.035 86.0624 178.556 82.9284 178.556C81.4934 178.556 80.0314 179.024 79.6774 179.596ZM230.318 183.837C230.254 184.817 229.516 185.882 228.676 186.204C226.402 187.077 228.958 189.768 231.343 189.011C233.282 188.396 233.465 189.03 233.376 196.056L233.337 199.056L234.078 196.056C234.855 192.907 233.874 187.598 232.336 186.626C231.84 186.313 231.209 185.156 230.934 184.056C230.515 182.381 230.415 182.345 230.318 183.837ZM225.202 191.497C225.202 192.015 225.652 192.716 226.202 193.056C226.752 193.396 227.202 192.972 227.202 192.115C227.202 191.258 226.752 190.556 226.202 190.556C225.652 190.556 225.202 190.979 225.202 191.497ZM82.2024 194.556C80.8694 195.418 80.8694 195.519 82.2024 195.47C83.0274 195.44 84.6024 195.029 85.7024 194.556L87.7024 193.697L85.7024 193.642C84.6024 193.611 83.0274 194.023 82.2024 194.556ZM121.578 195.094C121.932 196.017 121.487 196.893 120.463 197.286C119.526 197.646 112.073 200.275 103.903 203.128C92.0124 207.281 88.9384 208.032 88.5014 206.893C88.2014 206.11 88.1794 205.245 88.4544 204.971C89.1484 204.276 118.441 193.674 119.845 193.609C120.474 193.58 121.254 194.248 121.578 195.094ZM380.452 195.245C381.414 195.497 382.99 195.497 383.952 195.245C384.914 194.994 384.127 194.788 382.202 194.788C380.277 194.788 379.49 194.994 380.452 195.245ZM229.202 199.615C229.202 200.197 229.652 200.396 230.202 200.056C230.752 199.716 231.202 199.24 231.202 198.997C231.202 198.754 230.752 198.556 230.202 198.556C229.652 198.556 229.202 199.033 229.202 199.615ZM124.202 202.446C124.202 203.996 121.28 205.326 107.952 209.84C96.6244 213.676 91.4874 214.999 90.9944 214.208C90.6044 213.584 90.6044 212.769 90.9944 212.398C91.7124 211.714 122.073 200.677 123.452 200.599C123.865 200.575 124.202 201.407 124.202 202.446ZM238.015 201.239C238.736 201.528 239.599 201.492 239.931 201.16C240.263 200.828 239.673 200.592 238.619 200.635C237.454 200.683 237.217 200.92 238.015 201.239ZM237.767 206.451C236.806 208.006 239.999 208.505 241.251 206.997C242.226 205.822 242.066 205.556 240.383 205.556C239.249 205.556 238.071 205.959 237.767 206.451ZM377.202 208.556C378.027 209.089 379.602 209.501 380.702 209.47L382.702 209.415L380.702 208.556C379.602 208.083 378.027 207.672 377.202 207.642C375.869 207.593 375.869 207.694 377.202 208.556ZM245.281 211.139C245.329 212.304 245.566 212.541 245.885 211.744C246.174 211.022 246.138 210.159 245.806 209.827C245.474 209.495 245.238 210.085 245.281 211.139ZM245.702 214.556C245.362 215.106 245.561 215.556 246.143 215.556C246.725 215.556 247.202 215.106 247.202 214.556C247.202 214.006 247.004 213.556 246.761 213.556C246.518 213.556 246.042 214.006 245.702 214.556ZM238.873 217.972C238.117 219.94 235.197 218.923 235.217 216.699C235.231 215.273 235.361 215.254 236.202 216.556C237.01 217.806 237.174 217.731 237.187 216.106C237.198 214.654 237.491 214.445 238.335 215.289C238.958 215.912 239.2 217.119 238.873 217.972ZM230.733 219.458C230.154 221.284 229.876 221.373 228.634 220.13C226.87 218.367 226.799 216.87 228.452 216.264C230.366 215.563 231.476 217.117 230.733 219.458ZM232.885 217.744C232.566 218.541 232.329 218.304 232.281 217.139C232.238 216.085 232.474 215.495 232.806 215.827C233.138 216.159 233.174 217.022 232.885 217.744ZM242.202 218.497C242.202 219.015 241.752 219.716 241.202 220.056C240.652 220.396 240.202 219.972 240.202 219.115C240.202 218.258 240.652 217.556 241.202 217.556C241.752 217.556 242.202 217.979 242.202 218.497ZM251.36 219.556C251.36 220.931 251.587 221.494 251.864 220.806C252.142 220.119 252.142 218.994 251.864 218.306C251.587 217.619 251.36 218.181 251.36 219.556ZM253.36 219.556C253.36 220.931 253.587 221.494 253.864 220.806C254.142 220.119 254.142 218.994 253.864 218.306C253.587 217.619 253.36 218.181 253.36 219.556ZM258.36 219.556C258.36 220.931 258.587 221.494 258.864 220.806C259.142 220.119 259.142 218.994 258.864 218.306C258.587 217.619 258.36 218.181 258.36 219.556ZM163.202 219.556C163.202 220.106 164.102 220.556 165.202 220.556C166.302 220.556 167.202 220.106 167.202 219.556C167.202 219.006 166.302 218.556 165.202 218.556C164.102 218.556 163.202 219.006 163.202 219.556ZM261.202 222.056C261.202 222.881 261.638 223.556 262.171 223.556C262.703 223.556 262.88 222.881 262.564 222.056C262.247 221.231 261.811 220.556 261.595 220.556C261.379 220.556 261.202 221.231 261.202 222.056ZM372.627 222.435C372.926 222.919 374.19 223.572 375.436 223.886C377.622 224.436 377.634 224.405 375.761 223.006C373.611 221.4 371.782 221.067 372.627 222.435ZM184.202 223.556C184.202 224.106 183.752 224.556 183.202 224.556C182.652 224.556 182.202 224.106 182.202 223.556C182.202 223.006 182.652 222.556 183.202 222.556C183.752 222.556 184.202 223.006 184.202 223.556ZM265.202 223.389C265.202 223.848 265.857 224.223 266.658 224.223C267.459 224.223 267.882 223.848 267.599 223.389C267.316 222.931 266.661 222.556 266.143 222.556C265.625 222.556 265.202 222.931 265.202 223.389ZM144.202 224.556C144.202 225.106 143.725 225.556 143.143 225.556C142.561 225.556 142.362 225.106 142.702 224.556C143.042 224.006 143.518 223.556 143.761 223.556C144.004 223.556 144.202 224.006 144.202 224.556ZM202.202 225.615C202.202 226.747 201.772 227.408 201.246 227.083C200.72 226.758 200.543 225.831 200.853 225.024C201.646 222.957 202.202 223.2 202.202 225.615ZM218.564 226.056C218.247 226.881 217.811 227.556 217.595 227.556C217.379 227.556 217.202 226.881 217.202 226.056C217.202 225.231 217.638 224.556 218.171 224.556C218.703 224.556 218.88 225.231 218.564 226.056ZM164.806 228.285C163.79 229.302 162.951 227.771 163.785 226.422C164.415 225.402 164.651 225.402 164.989 226.418C165.221 227.113 165.138 227.953 164.806 228.285ZM174.202 225.997C174.202 226.24 173.752 226.716 173.202 227.056C172.652 227.396 172.202 227.197 172.202 226.615C172.202 226.033 172.652 225.556 173.202 225.556C173.752 225.556 174.202 225.754 174.202 225.997ZM176.885 227.744C176.566 228.541 176.329 228.304 176.281 227.139C176.238 226.085 176.474 225.495 176.806 225.827C177.138 226.159 177.174 227.022 176.885 227.744Z" fill="white"/>
<path d="M19.5724 299.86C19.5724 301.652 19.0177 303.102 17.9084 304.212C16.7991 305.278 15.3484 305.812 13.5564 305.812H8.94839C7.15639 305.812 5.70572 305.278 4.59639 304.212C3.48706 303.102 2.93239 301.652 2.93239 299.86V266.452C2.93239 264.66 3.48706 263.23 4.59639 262.164C5.70572 261.054 7.15639 260.5 8.94839 260.5H13.5564C15.3484 260.5 16.7991 261.054 17.9084 262.164C19.0177 263.23 19.5724 264.66 19.5724 266.452V299.86ZM9.33239 266.452C9.11906 266.452 9.01239 266.558 9.01239 266.772V299.54C9.01239 299.753 9.11906 299.86 9.33239 299.86H13.1724C13.3857 299.86 13.4924 299.753 13.4924 299.54V266.772C13.4924 266.558 13.3857 266.452 13.1724 266.452H9.33239ZM31.7199 266.708L32.3599 260.756H42.4719C44.2639 260.756 45.7146 261.31 46.8239 262.42C47.9332 263.486 48.4879 264.916 48.4879 266.708V286.74C48.4879 288.532 47.8052 289.982 46.4399 291.092C45.1172 292.158 43.5599 292.692 41.7679 292.692H38.7599V305.556H32.6799V266.708H31.7199ZM42.0879 266.708H38.7599V286.74H42.0879C42.3012 286.74 42.4079 286.633 42.4079 286.42V267.028C42.4079 266.814 42.3012 266.708 42.0879 266.708ZM75.8154 299.604L75.3034 305.556H61.2874V266.708H60.3274L60.9674 260.756H75.8154L75.1754 266.708H67.3674V280.148H74.5354L73.8954 286.1H67.3674V299.604H75.8154ZM87.6374 266.708L88.2774 260.756H98.3894C100.181 260.756 101.632 261.31 102.741 262.42C103.851 263.486 104.405 264.916 104.405 266.708V286.74C104.405 287.678 104.213 288.532 103.829 289.3C103.445 290.025 102.933 290.644 102.293 291.156L106.389 305.556H100.245L96.5974 292.692H94.6774V305.556H88.5974V266.708H87.6374ZM98.0054 266.708H94.6774V286.74H98.0054C98.2187 286.74 98.3254 286.633 98.3254 286.42V267.028C98.3254 266.814 98.2187 266.708 98.0054 266.708ZM123.957 305.556H117.877L121.333 266.708H120.181L120.821 260.756H132.533L136.501 305.556H130.421L129.717 297.876H124.661L123.957 305.556ZM125.173 291.924H129.205L127.221 269.652L125.173 291.924ZM165.272 286.1V299.86C165.272 301.652 164.718 303.102 163.608 304.212C162.499 305.278 161.048 305.812 159.256 305.812H154.648C152.856 305.812 151.406 305.278 150.296 304.212C149.187 303.102 148.632 301.652 148.632 299.86V266.452C148.632 264.66 149.187 263.23 150.296 262.164C151.406 261.054 152.856 260.5 154.648 260.5H159.256C161.048 260.5 162.499 261.054 163.608 262.164C164.718 263.23 165.272 264.66 165.272 266.452V280.788L159.192 280.148V266.772C159.192 266.558 159.086 266.452 158.872 266.452H155.032C154.819 266.452 154.712 266.558 154.712 266.772V299.54C154.712 299.753 154.819 299.86 155.032 299.86H158.872C159.086 299.86 159.192 299.753 159.192 299.54V286.1H165.272ZM157.656 304.852V306.772H157.784C159.448 306.772 160.28 307.305 160.28 308.372V310.932C160.28 311.316 160.003 311.636 159.448 311.892C158.936 312.19 158.275 312.34 157.464 312.34H153.496V309.14H156.248V310.932H157.464V308.372H157.4C156.675 308.372 156.056 308.201 155.544 307.86C155.075 307.518 154.84 307.156 154.84 306.772V304.852H157.656ZM183.5 305.556H177.42L180.876 266.708H179.724L180.364 260.756H192.076L196.044 305.556H189.964L189.26 297.876H184.204L183.5 305.556ZM184.716 291.924H188.748L186.764 269.652L184.716 291.924ZM191.18 253.908V258.452C190.753 259.049 190.092 259.39 189.196 259.476C188.343 259.518 187.468 259.284 186.572 258.772C185.761 258.345 184.951 258.196 184.14 258.324C183.372 258.409 182.775 258.772 182.348 259.412V254.868C182.817 254.313 183.479 254.014 184.332 253.972C185.228 253.886 186.103 254.078 186.956 254.548C187.809 254.974 188.641 255.145 189.452 255.06C190.263 254.974 190.839 254.59 191.18 253.908ZM224.815 299.86C224.815 301.652 224.26 303.102 223.151 304.212C222.042 305.278 220.591 305.812 218.799 305.812H214.191C212.399 305.812 210.948 305.278 209.839 304.212C208.73 303.102 208.175 301.652 208.175 299.86V266.452C208.175 264.66 208.73 263.23 209.839 262.164C210.948 261.054 212.399 260.5 214.191 260.5H218.799C220.591 260.5 222.042 261.054 223.151 262.164C224.26 263.23 224.815 264.66 224.815 266.452V299.86ZM214.575 266.452C214.362 266.452 214.255 266.558 214.255 266.772V299.54C214.255 299.753 214.362 299.86 214.575 299.86H218.415C218.628 299.86 218.735 299.753 218.735 299.54V266.772C218.735 266.558 218.628 266.452 218.415 266.452H214.575ZM273.87 299.604L273.358 305.556H259.342V266.708H258.382L259.022 260.756H273.87L273.23 266.708H265.422V280.148H272.59L271.95 286.1H265.422V299.604H273.87ZM302.66 286.1V299.86C302.66 301.652 302.105 303.102 300.996 304.212C299.887 305.278 298.436 305.812 296.644 305.812H292.036C290.244 305.812 288.793 305.278 287.684 304.212C286.575 303.102 286.02 301.652 286.02 299.86V266.452C286.02 264.66 286.575 263.23 287.684 262.164C288.793 261.054 290.244 260.5 292.036 260.5H296.644C298.436 260.5 299.887 261.054 300.996 262.164C302.105 263.23 302.66 264.66 302.66 266.452V280.788L296.58 280.148V266.772C296.58 266.558 296.473 266.452 296.26 266.452H292.42C292.207 266.452 292.1 266.558 292.1 266.772V299.54C292.1 299.753 292.207 299.86 292.42 299.86H296.26C296.473 299.86 296.58 299.753 296.58 299.54V286.1H302.66ZM332.513 299.604L332.001 305.556H316.705V266.708H315.745L316.385 260.756H322.785V299.604H332.513ZM345.007 305.556V266.708H344.047L344.687 260.756H351.087V305.556H345.007ZM363.225 266.708L363.865 260.756H373.977C375.769 260.756 377.22 261.31 378.329 262.42C379.438 263.486 379.993 264.916 379.993 266.708V286.74C379.993 288.532 379.31 289.982 377.945 291.092C376.622 292.158 375.065 292.692 373.273 292.692H370.265V305.556H364.185V266.708H363.225ZM373.593 266.708H370.265V286.74H373.593C373.806 286.74 373.913 286.633 373.913 286.42V267.028C373.913 266.814 373.806 266.708 373.593 266.708ZM398.56 292.756V299.54C398.56 299.753 398.667 299.86 398.88 299.86H401.44C401.653 299.86 401.76 299.753 401.76 299.54V288.02L396.704 285.78C396.32 285.652 395.787 285.438 395.104 285.14C394.421 284.798 393.803 284.308 393.248 283.668C392.736 283.028 392.48 282.153 392.48 281.044V266.452C392.48 264.66 393.035 263.23 394.144 262.164C395.253 261.054 396.704 260.5 398.496 260.5H401.824C403.616 260.5 405.067 261.054 406.176 262.164C407.285 263.23 407.84 264.66 407.84 266.452V275.924L401.76 275.412V266.772C401.76 266.558 401.653 266.452 401.44 266.452H398.88C398.667 266.452 398.56 266.558 398.56 266.772V280.148L403.616 282.388C404 282.558 404.533 282.793 405.216 283.092C405.899 283.39 406.496 283.86 407.008 284.5C407.563 285.14 407.84 286.014 407.84 287.124V299.86C407.84 301.652 407.285 303.102 406.176 304.212C405.067 305.278 403.616 305.812 401.824 305.812H398.496C396.704 305.812 395.253 305.278 394.144 304.212C393.035 303.102 392.48 301.652 392.48 299.86V292.756H398.56ZM435.498 299.604L434.986 305.556H420.97V266.708H420.01L420.65 260.756H435.498L434.858 266.708H427.05V280.148H434.218L433.578 286.1H427.05V299.604H435.498Z" fill="white"/>
</svg>
