<svg width="440" height="339" viewBox="0 0 440 339" fill="none" xmlns="http://www.w3.org/2000/svg">
<path d="M247.497 172.112C249.957 170.693 252.879 170.813 255.158 172.167C251.379 172.218 249.737 173.931 249.182 174.718C249.06 174.767 248.939 174.822 248.822 174.889C247.5 175.651 247.047 177.339 247.809 178.66C248.57 179.981 250.258 180.434 251.58 179.672C252.9 178.911 253.353 177.223 252.592 175.902C252.451 175.658 252.278 175.445 252.083 175.263C252.572 174.564 254.044 173.151 257.502 174.358C257.621 174.53 257.734 174.706 257.84 174.889C259.929 178.511 258.686 183.143 255.063 185.231C251.44 187.321 246.81 186.077 244.721 182.454C242.631 178.831 243.875 174.201 247.497 172.112ZM223.926 184.901C224.715 187.069 223.595 189.466 221.427 190.254C219.258 191.041 216.861 189.922 216.074 187.754C215.285 185.585 216.405 183.189 218.573 182.4C220.741 181.613 223.138 182.732 223.926 184.901ZM238.519 174.214C238.743 173.379 238.806 172.603 238.723 172.075C239.138 172.411 239.842 172.746 240.677 172.97C241.513 173.194 242.289 173.257 242.816 173.175C242.481 173.589 242.146 174.293 241.922 175.128C241.698 175.963 241.634 176.74 241.717 177.267C241.302 176.932 240.599 176.597 239.763 176.373C238.928 176.149 238.151 176.086 237.624 176.169C237.959 175.754 238.295 175.05 238.519 174.214ZM235.738 166.878C233.649 163.255 234.892 158.624 238.515 156.535C242.138 154.446 246.77 155.689 248.858 159.313C248.964 159.496 249.059 159.683 249.148 159.872C248.46 163.469 246.5 164.036 245.652 164.108C245.591 163.847 245.493 163.591 245.352 163.348C244.591 162.027 242.903 161.573 241.582 162.335C240.261 163.097 239.808 164.785 240.57 166.106C241.331 167.426 243.019 167.879 244.34 167.117C244.457 167.05 244.565 166.973 244.669 166.891C245.629 166.805 247.934 166.243 249.869 162.998C249.902 165.648 248.541 168.237 246.081 169.655C242.458 171.744 237.827 170.501 235.738 166.878ZM253.482 155.418C253.82 155.037 256.083 153.027 258.621 154.204C261.16 155.38 261.545 158.692 261.063 160.309C260.695 161.545 259.429 162.386 258.852 162.714C257.655 160.998 255.674 160.124 255.674 160.124C257.196 162.762 255.286 163.901 255.286 163.901L253.555 164.899C252.78 163.876 251.598 161.471 251.614 159.564C251.63 157.659 253.143 155.799 253.482 155.418ZM263.091 163.826C264.731 164.219 267.405 166.211 267.153 168.998C266.9 171.785 264.026 172.736 263.526 172.837C263.027 172.94 260.66 173.318 259.002 172.377C257.344 171.437 255.854 169.209 255.358 168.026L257.089 167.028C257.089 167.028 259.031 165.944 260.552 168.582C260.552 168.582 260.788 166.431 259.903 164.536C260.475 164.201 261.838 163.525 263.091 163.826ZM242.114 181.482C242.316 182.209 242.611 182.923 243.006 183.607C245.525 187.977 251.11 189.476 255.479 186.957C258.115 185.436 259.705 182.8 259.999 179.989L260 179.988C260 179.988 260.921 178.413 262.888 178.729C264.856 179.046 264.977 181.48 264.977 181.48C264.977 181.48 266.413 179.133 264.192 177.215C262.422 175.689 260.49 176.449 259.775 176.824C259.574 176.022 259.262 175.235 258.828 174.483C258.793 174.422 258.755 174.363 258.718 174.302L263.116 174.893C263.116 174.893 268.952 175.214 268.571 167.846C268.571 167.846 268.333 164.337 265.524 163.205L270.427 159.873C270.427 159.873 271.874 159.747 272.519 160.864C273.175 162.001 272.606 163.361 272.606 163.361C272.606 163.361 274.769 162.951 273.908 157.588L284.026 150.657L296.297 142.335L282.831 148.843L271.92 154.117C267.71 150.686 266.232 152.307 266.232 152.307C266.232 152.307 267.774 152.635 268.418 153.752C269.067 154.877 268.211 155.909 268.211 155.909L262.818 158.516C263.247 155.516 260.329 153.553 260.329 153.553C254.143 149.533 251.497 154.745 251.497 154.745L249.805 158.846C249.772 158.784 249.74 158.721 249.705 158.66C249.271 157.909 248.745 157.244 248.153 156.669C248.835 156.237 250.461 154.946 250.026 152.651C249.479 149.766 246.729 149.835 246.729 149.835C246.729 149.835 248.775 151.158 248.063 153.02C247.351 154.881 245.526 154.889 245.526 154.889L245.525 154.889C242.944 153.736 239.867 153.791 237.232 155.311C232.862 157.831 231.362 163.415 233.882 167.785C234.277 168.469 234.746 169.082 235.275 169.622C235.588 170.324 236.949 173.665 235.033 174.836C232.887 176.147 231.328 176.861 230.439 176.48C229.551 176.1 228.687 175.185 228.428 174.478C228.17 173.771 228.793 171.627 228.793 171.627C228.793 171.627 226.894 173.429 227.158 175.694C227.309 176.985 228.31 177.799 229.142 178.26C228.568 179.001 227.216 179.885 224.08 179.327L224.079 179.328C222.633 178.49 220.952 178.119 219.278 178.27C219.252 178.273 219.227 178.274 219.201 178.277C219.091 178.288 218.981 178.302 218.871 178.317C218.831 178.323 218.791 178.329 218.751 178.335C218.644 178.353 218.536 178.37 218.429 178.391C218.418 178.394 218.408 178.397 218.397 178.399C218.198 178.439 218 178.489 217.804 178.545C217.726 178.567 217.648 178.589 217.571 178.614C217.505 178.634 217.441 178.656 217.376 178.678C217.329 178.695 217.283 178.708 217.237 178.725C217.17 178.75 217.103 178.777 217.036 178.804C217.006 178.816 216.976 178.827 216.945 178.84C212.94 180.47 210.908 184.99 212.397 189.09C213.801 192.953 217.841 195.093 221.748 194.223C221.781 194.216 221.814 194.208 221.848 194.201C221.928 194.182 222.008 194.162 222.088 194.14C222.154 194.123 222.22 194.104 222.284 194.085C222.337 194.07 222.39 194.054 222.441 194.037C222.531 194.009 222.619 193.979 222.708 193.948C222.726 193.942 222.744 193.936 222.762 193.93C222.778 193.924 222.793 193.917 222.809 193.912C222.908 193.874 223.007 193.836 223.106 193.795C223.133 193.784 223.159 193.773 223.186 193.761C223.285 193.719 223.384 193.674 223.483 193.627C223.508 193.614 223.534 193.603 223.56 193.59C223.657 193.543 223.753 193.493 223.849 193.442C223.872 193.428 223.897 193.415 223.92 193.403C223.966 193.378 224.013 193.354 224.058 193.328C224.098 193.305 224.134 193.279 224.173 193.256C224.232 193.221 224.289 193.184 224.347 193.148C226.762 191.618 228.106 189.001 228.105 186.309L228.107 186.308C229.194 183.315 230.636 182.587 231.565 182.463C231.547 183.414 231.75 184.686 232.792 185.464C234.62 186.828 237.131 186.086 237.131 186.086C237.131 186.086 234.963 185.552 234.482 184.974C234 184.396 233.639 183.19 233.755 182.231C233.871 181.272 235.27 180.278 237.479 179.079C239.453 178.007 241.663 180.859 242.114 181.482Z" fill="white"/>
<path d="M219.621 190.511C217.323 190.316 215.617 188.294 215.812 185.995C216.007 183.697 218.029 181.991 220.328 182.186C222.626 182.381 224.332 184.403 224.137 186.701C223.943 189 221.921 190.706 219.621 190.511ZM213.181 175.35C212.636 176.782 211.469 177.91 211.469 177.91C209.045 179.753 206.518 178.775 206.518 178.775C195.814 174.559 192.402 165.688 191.873 164.209C191.345 162.729 191.684 161.476 191.684 161.476C192.883 158.442 195.094 157.361 195.094 157.361C197.036 156.196 199.753 156.215 201.935 158.385C204.117 160.554 204.544 163.569 202.996 165.219C201.803 166.49 198.247 166.186 198.247 166.186C198.247 166.186 201.246 168.919 202.449 168.296C202.449 168.296 202.462 169.933 204.245 172.151C204.245 172.151 203.549 169.317 205.281 167.492C206.838 165.85 209.939 166.345 212.121 168.515C214.302 170.686 213.987 173.235 213.181 175.35ZM188.249 154.75C187.878 154.987 187.073 154.322 187.073 154.322L186.125 153.493C181.184 149.228 178.137 148.537 176.926 148.458C176.305 148.417 175.697 148.247 175.174 147.91C174.702 147.605 174.228 147.178 174.065 146.633C173.703 145.421 174.422 144.034 175.172 143.007C175.921 141.98 177.866 142.606 177.866 142.606C181.082 143.849 185.533 146.995 186.871 148.973C188.209 150.952 188.676 153.019 188.72 153.471C188.764 153.924 188.863 154.361 188.249 154.75ZM171.324 140.158C170.069 138.909 169.682 137.263 170.46 136.48C171.238 135.698 172.887 136.077 174.142 137.325C175.397 138.574 175.784 140.22 175.006 141.002C174.228 141.785 172.58 141.407 171.324 140.158ZM220.658 178.288C219.575 178.198 218.525 178.325 217.549 178.632C217.527 178.148 217.334 177.67 216.964 177.302C216.423 176.764 215.653 176.598 214.971 176.803C214.586 176.527 215.213 175.197 215.213 175.197C215.213 175.197 216.662 171.638 214.741 169.046C212.819 166.453 210.992 164.75 206.036 164.73C206.036 164.73 206.194 159.773 203.966 157.557C201.739 155.342 198.112 154.19 195.585 154.88C193.058 155.571 191.384 156.19 191.384 156.19C191.384 156.19 189.488 150.043 190.471 147.067C190.471 147.067 189.07 147.037 188.493 148.508C188.493 148.508 187.128 146.716 185.338 145.248C181.961 142.479 177.774 140.847 177.774 140.847C177.774 140.847 177.219 140.606 176.754 140.7C176.827 139.461 176.147 137.895 174.854 136.609C173.902 135.663 172.8 135.049 171.791 134.823C172.48 133.72 172.699 132.73 172.258 132.292C172.258 132.292 170.02 134.226 168.831 133.042L142.488 108.659L167.013 134.869C168.203 136.053 166.282 138.301 166.282 138.301C166.722 138.74 167.71 138.515 168.809 137.821C169.041 138.829 169.66 139.927 170.612 140.874C171.322 141.58 172.116 142.101 172.893 142.414C170.631 147.099 174.02 149.35 174.02 149.35C173.031 149.865 173.039 150.657 173.039 150.657C173.039 150.657 179.284 148.674 185.04 155.223C185.04 155.223 187.114 156.749 188.186 161.36C189.258 165.971 192.943 176.789 206.457 181.578C206.457 181.578 208.568 182.375 212.118 184.419C212.02 184.822 211.952 185.238 211.915 185.666C211.537 190.117 214.84 194.031 219.291 194.408C223.743 194.786 227.657 191.483 228.034 187.032C228.412 182.58 225.109 178.666 220.658 178.288Z" fill="white"/>
<path d="M221.007 182.318C223.233 182.917 224.551 185.207 223.952 187.432C223.353 189.658 221.063 190.976 218.837 190.377C216.613 189.778 215.293 187.487 215.893 185.262C216.492 183.037 218.782 181.718 221.007 182.318ZM209.094 177.374C208.581 177.038 208.016 176.777 207.415 176.606C207.197 177.727 206.256 179.643 203.463 179.81C202.595 179.863 201.921 179.643 201.4 179.3C200.071 178.423 199.744 176.742 199.744 176.742L199.744 176.741C199.744 176.741 198.15 179.383 195.314 178.633L72.9456 146.236C72.9454 146.233 72.9452 146.23 72.945 146.227C72.9459 146.191 72.9458 146.155 72.9443 146.12C72.9444 146.112 72.9443 146.105 72.9442 146.098C72.943 146.088 72.9408 146.077 72.9396 146.067C72.9228 145.847 72.8714 145.634 72.788 145.435C72.7865 145.429 72.7847 145.425 72.7829 145.42C72.7363 145.311 72.6806 145.207 72.6165 145.108C72.6135 145.104 72.612 145.099 72.61 145.095C72.6034 145.087 72.598 145.077 72.5915 145.069C72.4996 144.934 72.3911 144.809 72.2693 144.698C72.2629 144.692 72.2577 144.686 72.2511 144.681C72.2466 144.676 72.2397 144.672 72.2352 144.667C72.2301 144.663 72.2251 144.66 72.2204 144.656C72.1664 144.611 72.1111 144.568 72.0526 144.528C72.0444 144.522 72.0383 144.516 72.0298 144.51C72.0255 144.508 72.0214 144.505 72.017 144.503C71.9775 144.478 71.9366 144.454 71.8954 144.431C71.892 144.429 71.8879 144.426 71.8836 144.424C71.8811 144.422 71.8786 144.42 71.8749 144.42C71.8294 144.395 71.7815 144.371 71.7332 144.349C71.7236 144.344 71.713 144.34 71.7034 144.335C71.6954 144.332 71.6873 144.329 71.6802 144.326C71.6422 144.31 71.6037 144.296 71.564 144.282C71.5486 144.277 71.5334 144.271 71.5171 144.266C71.5024 144.262 71.4877 144.258 71.4733 144.253C71.4576 144.249 71.4428 144.242 71.4271 144.237C71.4078 144.232 71.3878 144.23 71.3685 144.225C71.3545 144.222 71.3398 144.218 71.3257 144.215C71.311 144.211 71.2949 144.209 71.279 144.206C71.2358 144.198 71.1934 144.191 71.1503 144.186C71.1436 144.185 71.1372 144.183 71.1305 144.183C71.122 144.181 71.1142 144.181 71.1054 144.181C71.0471 144.174 70.9899 144.171 70.932 144.17L70.9311 144.17C70.9302 144.169 70.9293 144.169 70.929 144.17C70.8792 144.168 70.8309 144.168 70.782 144.171C70.778 144.171 70.7741 144.171 70.7702 144.171C70.7561 144.172 70.7427 144.174 70.7295 144.176C70.6611 144.181 70.5926 144.19 70.5252 144.203C70.5231 144.203 70.5213 144.203 70.5192 144.203C70.516 144.204 70.5129 144.204 70.5109 144.205C70.4516 144.216 70.3936 144.23 70.3361 144.247C70.3308 144.248 70.3248 144.248 70.3204 144.25C70.3129 144.252 70.3064 144.254 70.2999 144.257C70.2517 144.271 70.2029 144.288 70.1555 144.307C70.1479 144.309 70.1393 144.312 70.1307 144.315C70.1219 144.318 70.1128 144.323 70.1037 144.327C70.0616 144.344 70.0212 144.363 69.9814 144.383C69.9714 144.387 69.9614 144.391 69.952 144.397C69.943 144.401 69.9334 144.408 69.9232 144.413C69.8852 144.433 69.8479 144.455 69.8101 144.478C69.8017 144.484 69.7926 144.488 69.7831 144.494C69.7749 144.499 69.7663 144.506 69.7588 144.512C69.7196 144.536 69.6826 144.564 69.6457 144.592C69.6382 144.597 69.631 144.602 69.6235 144.608C69.6174 144.613 69.612 144.618 69.6057 144.623C69.5643 144.656 69.5242 144.692 69.4848 144.729C69.4811 144.732 69.4771 144.736 69.4731 144.739C69.4693 144.742 69.4665 144.746 69.4637 144.749C69.364 144.845 69.2745 144.951 69.1952 145.067C69.1905 145.074 69.186 145.079 69.1824 145.085C69.1808 145.088 69.1803 145.089 69.1789 145.091C69.1145 145.188 69.0589 145.292 69.0119 145.402C69.0114 145.404 69.0097 145.406 69.0092 145.408C69.0078 145.41 69.0075 145.411 69.007 145.412C68.9857 145.463 68.9659 145.515 68.9477 145.568C68.9454 145.576 68.9421 145.585 68.9389 145.593C68.9367 145.602 68.9347 145.609 68.9325 145.617C68.9252 145.641 68.9163 145.663 68.9096 145.688C68.9032 145.712 68.8998 145.735 68.8934 145.759C68.8921 145.768 68.8902 145.775 68.8879 145.783C68.8855 145.793 68.8849 145.802 68.8826 145.811C68.872 145.865 68.8626 145.919 68.8559 145.973C68.8554 145.975 68.8556 145.978 68.8551 145.98C68.8546 145.981 68.8548 145.984 68.8541 145.987C68.8412 146.105 68.8365 146.222 68.8428 146.338C68.8433 146.34 68.8425 146.343 68.843 146.345C68.8435 146.354 68.845 146.363 68.8455 146.372C68.8514 146.446 68.8608 146.517 68.8742 146.589C68.8739 146.59 68.8737 146.59 68.8746 146.591C68.8744 146.592 68.875 146.593 68.8748 146.594C68.886 146.655 68.9004 146.715 68.917 146.774C68.9185 146.78 68.9191 146.785 68.9206 146.79C68.9228 146.797 68.925 146.803 68.9272 146.81C68.9416 146.859 68.9584 146.907 68.976 146.955C68.9789 146.962 68.9815 146.971 68.9851 146.98C68.9886 146.989 68.9931 146.998 68.9973 147.008C69.0142 147.048 69.032 147.088 69.0512 147.127C69.0563 147.137 69.0612 147.148 69.0663 147.158C69.0712 147.169 69.0784 147.179 69.0833 147.19C69.1024 147.226 69.1225 147.261 69.1439 147.295C69.1509 147.306 69.1567 147.317 69.163 147.327C69.1699 147.338 69.1772 147.348 69.1835 147.357C69.2067 147.392 69.2301 147.426 69.2556 147.459C69.2628 147.469 69.2691 147.479 69.2766 147.488C69.2831 147.496 69.2902 147.503 69.2967 147.512C69.3264 147.548 69.3574 147.583 69.3884 147.618C69.3955 147.625 69.4014 147.632 69.4075 147.639C69.4129 147.644 69.4186 147.649 69.4241 147.654C69.4617 147.694 69.5029 147.731 69.5443 147.768C69.5481 147.772 69.552 147.776 69.5561 147.779C69.5593 147.782 69.5624 147.785 69.5659 147.787C69.6139 147.828 69.6647 147.866 69.7169 147.903C69.7185 147.904 69.7201 147.906 69.721 147.906C69.7334 147.915 69.7445 147.925 69.7571 147.933C69.7614 147.936 69.7658 147.938 69.7699 147.941C69.8069 147.965 69.8462 147.987 69.8846 148.009C69.888 148.011 69.8924 148.013 69.8958 148.015C69.8983 148.017 69.9008 148.018 69.9036 148.019C69.9482 148.044 69.9942 148.067 70.0416 148.089C70.053 148.094 70.0633 148.099 70.0748 148.104C70.0837 148.108 70.0927 148.111 70.1007 148.114C70.1351 148.129 70.1699 148.143 70.205 148.155C70.2229 148.162 70.242 148.168 70.2599 148.175C70.2771 148.18 70.2936 148.185 70.3111 148.189C70.3274 148.195 70.3425 148.201 70.3591 148.205C70.372 148.209 70.3844 148.21 70.3973 148.213C70.415 148.217 70.4334 148.222 70.4511 148.226C70.4706 148.23 70.4904 148.233 70.51 148.238C70.5447 148.244 70.5794 148.25 70.6138 148.255C70.625 148.257 70.6354 148.258 70.6469 148.26C70.6612 148.261 70.6757 148.262 70.6903 148.263C70.7373 148.268 70.7836 148.272 70.8295 148.273C70.8353 148.274 70.8413 148.273 70.8471 148.274C70.8549 148.274 70.8639 148.273 70.8718 148.274C70.9149 148.274 70.9571 148.275 71.0001 148.272C71.0061 148.272 71.011 148.272 71.017 148.272C71.0269 148.272 71.0355 148.269 71.0454 148.269C71.0475 148.268 71.0487 148.268 71.0507 148.267C71.118 148.263 71.1853 148.254 71.2515 148.242C71.2589 148.24 71.2668 148.24 71.2739 148.239C71.2802 148.238 71.2874 148.237 71.2945 148.236C71.3029 148.234 71.3117 148.231 71.321 148.229C71.3879 148.215 71.4535 148.198 71.5183 148.177C71.5215 148.176 71.5245 148.176 71.5269 148.174C71.528 148.174 71.529 148.174 71.5301 148.173C71.6153 148.146 71.6983 148.112 71.7786 148.073C71.7897 148.068 71.8009 148.063 71.8123 148.058C71.8169 148.055 71.8218 148.051 71.8265 148.049C71.9303 147.996 72.0307 147.934 72.1242 147.864C72.1291 147.861 72.1333 147.856 72.1382 147.852C72.3091 147.722 72.4606 147.564 72.5849 147.384C72.5912 147.375 72.5983 147.367 72.6047 147.358C72.6092 147.352 72.6121 147.345 72.6165 147.339C72.6353 147.31 72.6524 147.279 72.6693 147.249C72.6712 147.245 72.6729 147.243 72.6748 147.24L194.769 180.658C194.77 180.658 194.77 180.658 194.77 180.658C195.212 180.78 195.586 180.957 195.903 181.171C197.614 182.323 197.65 184.517 197.65 184.517C197.65 184.517 199.831 182.02 202.408 183.731C204.738 185.279 204.592 187.408 204.217 188.487C206.639 189.101 209.284 188.187 210.77 186.015L214.815 187.105C214.832 187.22 214.853 187.334 214.877 187.448C214.888 187.496 214.9 187.544 214.912 187.591C214.939 187.698 214.968 187.803 215.001 187.906C215.019 187.967 215.04 188.025 215.061 188.085C215.093 188.176 215.127 188.265 215.166 188.354C215.193 188.42 215.222 188.485 215.253 188.549C215.292 188.631 215.331 188.711 215.374 188.791C215.409 188.855 215.445 188.918 215.483 188.981C215.529 189.059 215.575 189.135 215.625 189.21C215.663 189.268 215.705 189.324 215.746 189.381C215.801 189.457 215.857 189.533 215.916 189.606C215.957 189.655 215.999 189.703 216.041 189.752C216.107 189.826 216.172 189.9 216.242 189.971C216.284 190.014 216.33 190.054 216.373 190.097C216.447 190.166 216.52 190.234 216.598 190.301C216.647 190.343 216.7 190.381 216.751 190.422C216.827 190.479 216.9 190.538 216.979 190.593C217.055 190.647 217.136 190.694 217.216 190.744C217.272 190.779 217.327 190.816 217.386 190.85C217.829 191.099 218.31 191.285 218.819 191.395C218.854 191.403 218.888 191.408 218.923 191.414C219.049 191.439 219.175 191.461 219.304 191.477C219.373 191.486 219.442 191.489 219.512 191.495C219.604 191.502 219.697 191.51 219.792 191.512C219.885 191.515 219.976 191.511 220.068 191.509C220.124 191.508 220.178 191.51 220.233 191.507C220.252 191.507 220.27 191.502 220.288 191.501C220.395 191.493 220.499 191.48 220.604 191.466C220.671 191.457 220.74 191.45 220.808 191.439C220.897 191.423 220.985 191.401 221.073 191.382C221.154 191.363 221.235 191.346 221.315 191.324C221.382 191.306 221.447 191.282 221.514 191.26C221.61 191.229 221.706 191.2 221.799 191.163C221.851 191.144 221.9 191.119 221.951 191.097C222.054 191.053 222.157 191.01 222.255 190.96C222.308 190.933 222.358 190.902 222.41 190.874C222.502 190.823 222.594 190.774 222.683 190.718C222.758 190.671 222.828 190.618 222.901 190.567C222.961 190.524 223.024 190.485 223.081 190.439C223.184 190.36 223.282 190.275 223.379 190.189C223.402 190.167 223.428 190.147 223.452 190.125C223.563 190.022 223.669 189.912 223.771 189.798C223.778 189.789 223.787 189.781 223.796 189.772C223.893 189.663 223.984 189.546 224.073 189.427C224.084 189.412 224.097 189.398 224.108 189.382C224.183 189.28 224.251 189.171 224.319 189.062C224.341 189.026 224.365 188.991 224.387 188.955C224.439 188.866 224.485 188.773 224.533 188.68C224.564 188.618 224.597 188.556 224.626 188.492C224.662 188.415 224.692 188.337 224.722 188.258C224.756 188.174 224.79 188.09 224.82 188.004C224.827 187.984 224.836 187.965 224.843 187.944C224.861 187.887 224.873 187.829 224.889 187.772C224.914 187.685 224.939 187.599 224.96 187.511C224.981 187.417 224.998 187.323 225.014 187.23C225.027 187.16 225.039 187.091 225.048 187.02C225.064 186.902 225.074 186.785 225.081 186.668C225.084 186.619 225.088 186.57 225.09 186.522C225.095 186.382 225.093 186.244 225.086 186.106C225.085 186.082 225.087 186.058 225.085 186.034C225.085 186.025 225.083 186.016 225.082 186.008C225.073 185.866 225.057 185.725 225.035 185.585C225.03 185.551 225.027 185.518 225.022 185.484C225.001 185.359 224.973 185.236 224.942 185.114C224.931 185.066 224.922 185.018 224.909 184.973C224.881 184.871 224.846 184.771 224.812 184.671C224.79 184.609 224.772 184.545 224.748 184.483C224.715 184.4 224.677 184.318 224.64 184.236C224.608 184.165 224.58 184.092 224.545 184.023C224.504 183.942 224.457 183.866 224.412 183.787C224.376 183.722 224.341 183.655 224.301 183.592C224.242 183.499 224.177 183.409 224.112 183.319C224.081 183.277 224.054 183.232 224.022 183.19C223.937 183.081 223.846 182.977 223.754 182.874C223.736 182.855 223.722 182.835 223.704 182.816C223.603 182.709 223.496 182.606 223.386 182.506C223.374 182.494 223.362 182.483 223.349 182.471C223.249 182.382 223.142 182.299 223.033 182.217C223.007 182.197 222.983 182.176 222.956 182.156C222.868 182.092 222.775 182.035 222.681 181.975C222.629 181.942 222.578 181.907 222.525 181.876C222.454 181.834 222.38 181.799 222.306 181.76C222.224 181.718 222.142 181.674 222.057 181.635C222.003 181.611 221.946 181.59 221.89 181.567C221.783 181.522 221.675 181.48 221.564 181.442C221.551 181.438 221.538 181.431 221.524 181.427C221.487 181.415 221.448 181.408 221.41 181.396C221.297 181.362 221.183 181.33 221.066 181.304C221.003 181.289 220.939 181.279 220.875 181.266C220.774 181.247 220.673 181.229 220.571 181.217C220.488 181.206 220.405 181.2 220.323 181.193C220.238 181.187 220.155 181.18 220.07 181.178C219.971 181.175 219.873 181.177 219.775 181.181C219.721 181.182 219.667 181.179 219.612 181.182C219.592 181.184 219.574 181.187 219.554 181.188C219.454 181.196 219.355 181.209 219.255 181.222C219.178 181.232 219.101 181.24 219.026 181.254C218.95 181.267 218.876 181.285 218.802 181.302C218.705 181.323 218.608 181.343 218.514 181.371C218.476 181.38 218.441 181.394 218.405 181.405C217.87 181.57 217.375 181.819 216.933 182.135C216.867 182.181 216.799 182.224 216.736 182.274C216.73 182.279 216.725 182.284 216.719 182.289C216.412 182.53 216.134 182.812 215.888 183.122L211.842 182.033C211.696 180.065 210.631 178.382 209.094 177.374Z" fill="white"/>
<path fill-rule="evenodd" clip-rule="evenodd" d="M220 0.279236C322.947 0.279236 406.697 83.6938 406.697 186.224C406.697 214.638 400.265 241.583 388.776 265.692H387.181C387.736 264.541 388.279 263.383 388.809 262.218L382.521 259.427C381.56 261.538 380.556 263.627 379.514 265.692H377.904C379.054 263.437 380.157 261.154 381.209 258.845C381.473 258.266 381.725 257.682 381.982 257.1C384.201 252.088 386.194 246.96 387.945 241.719C388.146 241.115 388.343 240.511 388.537 239.904C390.196 234.749 391.62 229.492 392.803 224.144C392.941 223.523 393.081 222.901 393.213 222.277C394.382 216.698 395.281 211.021 395.905 205.262C395.974 204.631 396.041 203.998 396.102 203.363C396.515 199.119 396.782 194.833 396.887 190.508C396.913 189.401 396.923 188.29 396.929 187.179C396.93 186.86 396.941 186.543 396.941 186.224C396.941 185.906 396.93 185.589 396.929 185.27C396.923 184.159 396.913 183.05 396.887 181.943C396.785 177.691 396.522 173.477 396.121 169.304C396.06 168.669 395.997 168.035 395.93 167.403C395.34 161.892 394.498 156.456 393.408 151.108C393.281 150.483 393.143 149.863 393.008 149.24C391.855 143.886 390.466 138.62 388.836 133.457C388.643 132.849 388.441 132.246 388.242 131.641C386.443 126.155 384.382 120.788 382.071 115.552C381.814 114.968 381.565 114.381 381.301 113.8C379.454 109.736 377.452 105.756 375.312 101.863C374.851 101.026 374.383 100.197 373.909 99.3692C373.594 98.8145 373.273 98.2627 372.951 97.7139C372.311 96.6204 371.662 95.5313 370.999 94.4539C368.829 90.9253 366.542 87.4766 364.135 84.1179C363.764 83.5995 363.382 83.0897 363.006 82.5757C359.751 78.1323 356.292 73.8456 352.643 69.7289C352.22 69.2512 351.797 68.7735 351.369 68.3001C347.711 64.2618 343.865 60.3948 339.851 56.7065C339.381 56.2752 338.912 55.8425 338.437 55.4155C334.16 51.5718 329.695 47.9343 325.057 44.5146C324.544 44.1356 324.026 43.7625 323.508 43.3893C319.823 40.7319 316.035 38.2096 312.144 35.8354C311.404 35.3853 310.656 34.9453 309.911 34.5053C309.36 34.18 308.814 33.8504 308.26 33.5309C307.083 32.8543 305.898 32.1921 304.704 31.5415C300.857 29.4433 296.927 27.4815 292.914 25.6663C292.333 25.4035 291.745 25.1538 291.162 24.8967C286.131 22.6866 280.98 20.7016 275.718 18.9591C275.111 18.7573 274.503 18.5626 273.895 18.3681C268.719 16.7156 263.442 15.2969 258.073 14.1207C257.449 13.9827 256.825 13.8433 256.198 13.7126C250.597 12.548 244.896 11.6521 239.114 11.0306C238.48 10.9623 237.844 10.8955 237.207 10.8346C232.945 10.4236 228.643 10.1565 224.299 10.0534C222.871 10.02 221.437 9.99964 220 9.99964C218.562 9.99964 217.131 10.0185 215.702 10.0534C211.023 10.1652 206.388 10.457 201.805 10.926C201.167 10.9899 200.535 11.0712 199.9 11.1424C194.372 11.7683 188.919 12.6425 183.557 13.7664C182.931 13.8971 182.307 14.035 181.685 14.173C176.318 15.3579 171.041 16.7853 165.868 18.445C165.26 18.6396 164.651 18.8342 164.046 19.036C158.549 20.8657 153.174 22.9553 147.931 25.2932C147.348 25.5545 146.768 25.8188 146.187 26.086C142.487 27.7835 138.855 29.6015 135.298 31.5415C134.104 32.1921 132.917 32.8543 131.74 33.5324C131.186 33.8504 130.641 34.18 130.091 34.5053C129.345 34.9453 128.597 35.3853 127.858 35.8354C123.971 38.2067 120.185 40.729 116.502 43.3834C115.985 43.7566 115.468 44.1299 114.954 44.5089C110.516 47.7804 106.237 51.2553 102.129 54.9175C101.653 55.343 101.175 55.7655 100.703 56.1953C96.6729 59.8663 92.8101 63.7173 89.1347 67.7411C88.7043 68.2115 88.2848 68.6921 87.8594 69.1684C84.0292 73.4536 80.4061 77.9232 77.0041 82.567C76.6278 83.0796 76.2459 83.5893 75.8752 84.1076C73.466 87.4693 71.1756 90.9224 69.0035 94.4539C68.3403 95.5328 67.691 96.6204 67.0505 97.7153C66.7284 98.2642 66.4088 98.816 66.0929 99.3692C65.6202 100.197 65.1511 101.028 64.6917 101.863C62.5852 105.695 60.6149 109.609 58.7927 113.607C58.5291 114.185 58.2775 114.77 58.0199 115.353C55.8013 120.364 53.8082 125.493 52.058 130.733C51.8567 131.337 51.6602 131.941 51.4651 132.548C49.8066 137.702 48.3822 142.958 47.2004 148.305C47.0627 148.927 46.9219 149.548 46.791 150.173C45.6216 155.753 44.7218 161.429 44.098 167.188C44.0295 167.821 43.963 168.454 43.9012 169.089C43.4881 173.332 43.2213 177.619 43.1174 181.943C43.0906 183.05 43.0806 184.159 43.0748 185.27C43.073 185.589 43.0627 185.906 43.0627 186.224C43.0627 186.543 43.073 186.86 43.0748 187.179C43.0806 188.29 43.0906 189.401 43.1174 190.508C43.2196 194.759 43.481 198.972 43.8822 203.145C43.943 203.78 44.0056 204.414 44.0734 205.046C44.6636 210.557 45.5054 215.995 46.5958 221.343C46.7231 221.967 46.8619 222.587 46.9955 223.21C48.1482 228.564 49.5386 233.831 51.1686 238.993C51.3606 239.6 51.5634 240.204 51.762 240.808C53.5605 246.294 55.6219 251.663 57.9327 256.899C58.1901 257.481 58.4393 258.07 58.7029 258.649C59.7829 261.026 60.9159 263.373 62.0985 265.692H60.487C59.4116 263.563 58.3779 261.409 57.3884 259.231L51.0993 262.015C51.6594 263.248 52.2333 264.474 52.8203 265.692H51.2244C39.7347 241.583 33.3028 214.638 33.3027 186.224C33.3027 83.6938 117.055 0.279236 220 0.279236ZM389.311 242.162C387.545 247.45 385.533 252.627 383.294 257.682L389.581 260.473C391.918 255.2 394.014 249.801 395.856 244.285L389.311 242.162ZM43.836 243.334C45.7271 249.107 47.8963 254.754 50.329 260.264L56.6183 257.48C54.2864 252.197 52.2064 246.781 50.3915 241.245L43.836 243.334ZM394.208 224.445C393.016 229.841 391.578 235.145 389.903 240.347L396.448 242.471C398.196 237.046 399.696 231.512 400.938 225.884L394.208 224.445ZM38.8499 224.906C40.0618 230.541 41.5256 236.085 43.2426 241.517L49.7984 239.429C48.1531 234.22 46.7502 228.906 45.5872 223.504L38.8499 224.906ZM397.334 205.411C396.704 211.22 395.798 216.947 394.617 222.577L401.348 224.016C402.58 218.145 403.526 212.173 404.182 206.113L397.334 205.411ZM35.7945 205.887C36.4143 211.688 37.3005 217.409 38.4492 223.039L45.1872 221.636C44.0866 216.239 43.2374 210.753 42.6419 205.191L35.7945 205.887ZM398.323 190.508C398.219 194.883 397.949 199.217 397.531 203.51L404.379 204.214C404.821 199.689 405.101 195.119 405.207 190.508H398.323ZM34.7962 190.508C34.9004 195.042 35.1748 199.537 35.6034 203.986L42.4506 203.29C42.0449 199.071 41.7811 194.809 41.6783 190.508H34.7962ZM35.6237 168.238C35.182 172.761 34.902 177.331 34.7962 181.943H41.6783C41.783 177.568 42.0521 173.233 42.4701 168.941L35.6237 168.238ZM397.551 169.159C397.957 173.38 398.221 177.642 398.323 181.943H405.207C405.102 177.408 404.828 172.914 404.4 168.463L397.551 169.159ZM394.815 150.816C395.914 156.212 396.764 161.698 397.359 167.258L404.209 166.562C403.589 160.763 402.702 155.041 401.554 149.413L394.815 150.816ZM38.6548 148.433C37.423 154.304 36.4755 160.278 35.8204 166.337L42.667 167.042C43.2961 161.23 44.2041 155.502 45.3843 149.872L38.6548 148.433ZM390.203 133.022C391.849 138.23 393.252 143.545 394.414 148.948L401.153 147.546C399.941 141.91 398.477 136.367 396.76 130.934L390.203 133.022ZM43.5532 129.981C41.8062 135.405 40.3067 140.937 39.0642 146.565L45.7934 148.004C46.9859 142.608 48.4235 137.305 50.0972 132.104L43.5532 129.981ZM383.384 114.971C385.716 120.253 387.796 125.67 389.61 131.205L396.168 129.117C394.275 123.345 392.107 117.696 389.674 112.187L383.384 114.971ZM50.4201 111.978C48.084 117.25 45.9865 122.651 44.1458 128.166L50.6901 130.289C52.456 125.002 54.4672 119.825 56.706 114.769L50.4201 111.978ZM376.555 101.147C378.72 105.085 380.745 109.109 382.613 113.219L388.904 110.436C386.936 106.106 384.801 101.865 382.515 97.7197L376.555 101.147ZM57.4863 97.7197C55.2369 101.8 53.1334 105.972 51.1921 110.232L57.4788 113.023C59.3215 108.981 61.315 105.021 63.4462 101.147L57.4863 97.7197ZM69.1234 79.2678C66.5525 82.856 64.1083 86.5385 61.7951 90.3081L67.7576 93.738C69.954 90.1644 72.2712 86.6721 74.7082 83.2713L69.1234 79.2678ZM365.301 83.2814C367.735 86.6793 370.05 90.1688 372.244 93.738L378.207 90.3081C375.896 86.5414 373.454 82.8632 370.887 79.2794L365.301 83.2814ZM353.715 68.7778C357.397 72.9308 360.886 77.2567 364.171 81.7408L369.758 77.7388C366.332 73.0601 362.693 68.5484 358.851 64.2182L353.715 68.7778ZM81.6748 63.6301C77.6434 68.1374 73.8309 72.8408 70.2525 77.7271L75.8373 81.7306C79.2698 77.0461 82.9256 72.5344 86.7908 68.2115L81.6748 63.6301ZM340.819 55.6493C344.869 59.3711 348.75 63.2729 352.442 67.3475L357.577 62.7879C353.728 58.5361 349.68 54.4659 345.454 50.5858L340.819 55.6493ZM95.1253 50.05C90.8825 53.9126 86.8167 57.9655 82.9493 62.2013L88.0657 66.7827C91.7746 62.7226 95.6723 58.8382 99.7392 55.1339L95.1253 50.05ZM325.904 43.3587C330.584 46.8089 335.091 50.4799 339.405 54.3584L344.041 49.295C339.542 45.2479 334.843 41.4202 329.961 37.8234L325.904 43.3587ZM110.05 37.8161C105.378 41.259 100.875 44.9169 96.5519 48.7722L101.166 53.856C105.311 50.1604 109.628 46.6536 114.107 43.353L110.05 37.8161ZM312.862 34.5953C316.797 36.9957 320.629 39.547 324.356 42.2334L328.413 36.698C324.488 33.8678 320.453 31.18 316.306 28.6562L312.862 34.5953ZM123.697 28.6562C119.552 31.177 115.52 33.8634 111.598 36.6907L115.655 42.2261C119.38 39.5426 123.208 36.9928 127.139 34.5953L123.697 28.6562ZM142.757 18.5351C138.807 20.3473 134.932 22.2902 131.137 24.3638L134.579 30.3015C138.177 28.3382 141.853 26.4998 145.595 24.782L142.757 18.5351ZM293.499 24.3595C297.557 26.1949 301.533 28.1799 305.422 30.3015L308.865 24.3638C304.768 22.1246 300.579 20.0293 296.303 18.0965L293.499 24.3595ZM161.457 11.1584C155.673 13.0824 150.016 15.2809 144.5 17.7422L147.339 23.9891C152.629 21.6309 158.052 19.5211 163.598 17.6754L161.457 11.1584ZM276.162 17.597C281.472 19.357 286.67 21.3594 291.747 23.5899L294.55 17.3269C289.255 15.0007 283.834 12.9111 278.295 11.0771L276.162 17.597ZM179.926 6.0717C174.277 7.31615 168.725 8.81905 163.281 10.5674L165.422 17.0845C170.642 15.4102 175.965 13.9697 181.38 12.7746L179.926 6.0717ZM258.375 12.7209C263.793 13.9087 269.117 15.3405 274.34 17.0075L276.473 10.4875C271.026 8.74648 265.471 7.25371 259.82 6.01652L258.375 12.7209ZM198.999 2.90316C193.181 3.55951 187.442 4.48015 181.798 5.66362L183.253 12.3665C188.664 11.2339 194.166 10.351 199.744 9.7208L198.999 2.90316ZM239.261 9.60752C245.096 10.2334 250.848 11.138 256.5 12.3128L257.945 5.60843C252.05 4.38141 246.052 3.43756 239.968 2.78557L239.261 9.60752ZM215.702 1.76477C210.719 1.87803 205.783 2.18581 200.903 2.68534L201.65 9.50298C206.283 9.02959 210.971 8.73483 215.702 8.62302V1.76477ZM224.299 8.62302C228.692 8.72612 233.044 8.99474 237.354 9.41149L238.061 2.58955C233.518 2.14956 228.93 1.87077 224.299 1.76477V8.62302Z" fill="white"/>
<path d="M73.7838 265.606C73.8063 265.635 73.8287 265.664 73.8508 265.692H73.6402L73.7838 265.606Z" fill="white"/>
<path d="M113.576 241.667C113.697 241.937 113.854 242.254 114.029 242.592C114.294 243.104 114.611 243.677 114.949 244.267C115.2 244.704 115.458 245.145 115.721 245.577C115.79 245.692 115.857 245.796 115.926 245.909C116.277 246.481 116.621 247.024 116.95 247.525C117.468 248.317 117.943 249 118.301 249.445L117.142 250.143C116.002 248.643 115.239 248.718 111.032 251.249L87.0298 265.692H77.845C78.4233 265.382 79.1003 264.99 79.9023 264.508L108.595 247.242C111.899 245.255 112.849 244.424 112.723 243.338C112.689 243.042 112.589 242.729 112.417 242.365L113.576 241.667Z" fill="white"/>
<path d="M123.448 257.589C123.582 257.876 123.741 258.199 123.922 258.496C124.109 258.802 124.318 259.083 124.51 259.338L117.224 265.692H109.718L113.746 262.216L105.07 265.692H103.244L123.448 257.589Z" fill="white"/>
<path d="M220 77.1878C280.424 77.1878 329.406 125.989 329.406 186.19C329.406 217.544 316.118 245.807 294.847 265.692H291.469C313.353 246.151 327.123 217.773 327.123 186.19C327.123 127.245 279.162 79.4624 220 79.4624C160.838 79.4624 112.877 127.245 112.877 186.19C112.877 217.773 126.647 246.151 148.531 265.692H145.153C123.882 245.807 110.594 217.544 110.594 186.19C110.594 125.989 159.576 77.1878 220 77.1878Z" fill="white"/>
<path d="M220 87.3523C274.788 87.3523 319.201 131.603 319.201 186.19C319.201 218.781 303.368 247.688 278.947 265.692H275.022C300.332 248.27 316.917 219.16 316.917 186.19C316.917 132.858 273.525 89.6268 220 89.6268C166.475 89.6268 123.083 132.858 123.083 186.19C123.083 219.16 139.668 248.27 164.978 265.692H161.053C136.633 247.688 120.799 218.781 120.799 186.19C120.799 131.603 165.212 87.3523 220 87.3523Z" fill="white"/>
<path d="M358.434 263.773C360.349 264.421 361.496 264.583 362.219 264.527C362.67 264.492 362.992 264.389 363.12 264.207L364.305 264.85C364.183 265.027 364.031 265.281 363.897 265.486C363.853 265.554 363.808 265.622 363.763 265.692H348.307L325.594 257.994L335.56 265.692H334.45L316.703 251.99C316.884 251.73 317.082 251.429 317.248 251.126C317.421 250.809 317.56 250.49 317.684 250.197L358.434 263.773Z" fill="white"/>
<path d="M107.867 232.213C108.056 232.634 108.33 233.168 108.639 233.739C108.928 234.271 109.247 234.833 109.585 235.405C109.726 235.645 109.868 235.887 110.012 236.123C110.989 237.733 111.963 239.212 112.592 239.991L111.433 240.687C110.293 239.189 109.53 239.263 105.322 241.795L76.6297 259.058C72.4217 261.592 72.0057 262.245 72.8 263.928L71.6421 264.626C71.2395 263.711 70.3782 262.166 69.4025 260.556C68.5479 259.155 67.5816 257.689 66.9168 256.848L68.0746 256.152C69.2225 257.66 69.9853 257.585 74.1934 255.05L102.886 237.788C107.094 235.256 107.51 234.608 106.708 232.911L107.867 232.213Z" fill="white"/>
<path d="M328.184 234.14C327.995 234.595 327.893 234.972 327.912 235.324C327.966 236.32 329.037 237.113 332.228 238.849L361.672 254.854C365.991 257.204 366.765 257.233 367.829 255.694L369.015 256.337C368.423 257.149 367.518 258.674 366.614 260.331C365.827 261.767 365.04 263.342 364.644 264.342L363.459 263.696C364.189 261.943 363.739 261.324 359.419 258.974L329.976 242.968C325.657 240.619 324.886 240.593 323.814 242.142L322.626 241.497C323.252 240.622 324.153 239.112 324.94 237.668C325.533 236.583 326.064 235.546 326.47 234.682C326.683 234.232 326.871 233.814 326.996 233.493L328.184 234.14Z" fill="white"/>
<path d="M102.15 222.76C102.589 223.737 103.444 225.269 104.297 226.67C105.277 228.278 106.253 229.757 106.883 230.536L105.722 231.234C104.58 229.736 103.816 229.81 99.6016 232.342L70.8641 249.606C66.6494 252.135 66.233 252.789 67.0283 254.475L65.8688 255.172C65.4654 254.256 64.6028 252.711 63.622 251.103C62.7693 249.702 61.8019 248.236 61.1361 247.394L62.2956 246.697C63.4449 248.205 64.2092 248.128 68.4238 245.599L97.1615 228.335C101.376 225.802 101.793 225.154 100.989 223.456L102.15 222.76Z" fill="white"/>
<path d="M54.9954 193.048C55.1933 194.93 55.8856 195.26 60.7985 195.26H94.3026C99.2155 195.26 99.9093 194.917 100.107 193.048H101.459C101.342 193.985 101.28 195.456 101.266 196.917C101.264 197.113 101.261 197.309 101.261 197.504C101.261 197.958 101.265 198.403 101.273 198.834C101.297 200.192 101.358 201.394 101.459 202.147H100.107C99.9093 200.277 99.2155 199.948 94.3026 199.948H60.7985C55.8856 199.948 55.1933 200.293 54.9954 202.147H53.6425C53.775 201.155 53.8405 199.387 53.8405 197.504C53.8405 195.863 53.775 194.111 53.6425 193.048H54.9954Z" fill="white"/>
<path d="M339.895 192.906C340.093 194.775 340.788 195.104 345.709 195.104H379.261C384.183 195.104 384.876 194.759 385.074 192.906H386.429C386.296 193.898 386.231 195.666 386.231 197.548C386.231 199.189 386.296 200.94 386.429 202.004H385.074C384.876 200.121 384.183 199.793 379.261 199.793H345.709C340.788 199.793 340.093 200.136 339.895 202.004H338.541C338.629 201.303 338.684 200.297 338.715 199.228C338.73 198.673 338.74 198.109 338.74 197.548C338.74 197.467 338.738 197.391 338.738 197.311C338.732 195.521 338.67 193.856 338.541 192.906H339.895Z" fill="white"/>
<path d="M101.459 171.44C101.429 171.786 101.374 172.328 101.321 172.945C101.271 173.528 101.231 174.178 101.211 174.847C101.205 175.05 101.195 175.253 101.195 175.454C101.195 177.26 101.393 179.28 101.459 180.185H100.039C100.039 178.863 99.8082 178.249 98.9175 178.249C98.5867 178.249 98.2249 178.32 97.7289 178.464L81.0623 183.396L88.4548 185.745C91.3266 186.679 93.7026 187.095 95.5184 187.095C96.2392 187.095 96.8731 187.027 97.4299 186.906C98.8253 186.604 99.6422 185.919 99.9455 184.999C99.992 184.859 100.086 184.74 100.106 184.586H101.459C101.446 184.695 101.436 184.866 101.425 184.999C101.378 185.536 101.339 186.201 101.312 186.906C101.285 187.632 101.271 188.295 101.266 188.809C101.264 188.947 101.26 189.125 101.26 189.229C101.26 190.349 101.326 191.307 101.459 191.926H100.106C99.3469 190.915 97.6147 189.879 94.9566 188.809C94.0326 188.437 93.0051 188.062 91.8556 187.681L79.7425 183.783L58.3571 190.104C55.7831 190.879 55.1234 191.178 54.9907 191.982H53.5711C53.6245 191.343 53.7564 190.102 53.8099 188.809C53.824 188.472 53.8364 188.133 53.8364 187.797C53.8364 186.061 53.6711 184.284 53.5711 183.295H54.9907C54.9907 184.599 55.3542 185.173 56.2778 185.173C56.6412 185.173 57.0374 185.1 57.5648 184.944L72.2516 180.572L65.5189 178.406C62.7141 177.445 60.4039 177.015 58.688 177.015C56.4103 177.015 55.156 177.79 54.9579 179.153H53.6039C53.7366 178.048 53.8021 176.443 53.8021 175.467C53.8021 174.348 53.7366 173.375 53.6039 172.758H54.9579C55.8159 174.05 58.688 175.383 62.02 176.456L73.5059 180.214L96.6727 173.317C97.2104 173.155 97.6204 173.023 98.0038 172.894C98.2358 172.816 98.4265 172.738 98.6094 172.667C99.5714 172.29 99.9519 171.974 100.039 171.44H101.459Z" fill="white"/>
<path d="M339.895 181.818C339.952 182.358 340.066 182.76 340.293 183.073C340.856 183.853 342.201 184.033 345.709 184.033H379.261C382.759 184.033 384.104 183.846 384.671 183.073C384.902 182.759 385.017 182.358 385.074 181.818H386.429C386.384 182.15 386.35 182.592 386.321 183.073C386.263 184.039 386.231 185.23 386.231 186.496C386.231 187.285 386.247 188.094 386.276 188.846C386.309 189.671 386.359 190.426 386.429 190.987H385.074C384.927 189.578 384.498 189.033 382.276 188.846C381.506 188.782 380.527 188.758 379.261 188.758H345.709C344.452 188.758 343.477 188.782 342.71 188.846C340.473 189.035 340.044 189.584 339.895 190.987H338.541C338.611 190.426 338.661 189.671 338.695 188.846C338.719 188.23 338.731 187.574 338.737 186.923C338.737 186.781 338.74 186.638 338.74 186.496C338.74 185.981 338.735 185.48 338.725 184.996C338.711 184.289 338.684 183.647 338.649 183.073C338.62 182.592 338.587 182.15 338.541 181.818H339.895Z" fill="white"/>
<path d="M339.895 170.8C340.093 172.669 340.788 172.999 345.709 172.999H379.261C384.183 172.999 384.876 172.653 385.074 170.8H386.429C386.296 171.792 386.231 173.56 386.231 175.442C386.231 177.083 386.296 178.834 386.429 179.898H385.074C384.876 178.017 384.183 177.687 379.261 177.687H345.709C340.788 177.687 340.093 178.03 339.895 179.898H338.541C338.674 178.834 338.74 177.083 338.74 175.442C338.74 175.21 338.737 174.989 338.734 174.763C338.728 174.089 338.716 173.437 338.693 172.848C338.66 172.023 338.61 171.308 338.541 170.8H339.895Z" fill="white"/>
<path d="M79.4558 97.2549C79.5626 98.8045 81.4006 101.375 83.7695 103.953L91.8999 112.873L115.489 118.243C118.113 118.832 118.837 118.893 119.35 118.256L120.585 118.955C120.144 119.598 119.139 120.962 118.362 122.326C117.952 123.046 117.562 123.819 117.216 124.532C116.88 125.22 116.604 125.814 116.393 126.263C116.344 126.366 116.282 126.5 116.242 126.584L115.007 125.885C115.075 125.766 115.111 125.672 115.166 125.563C115.648 124.623 115.686 124.038 114.991 123.647C114.702 123.483 114.353 123.366 113.849 123.248L96.8948 119.363L97.2214 119.715L102.162 125.046C104.2 127.268 106.061 128.802 107.64 129.692C110.084 131.069 111.937 131.01 112.879 129.757L114.055 130.424C113.385 131.334 112.061 133.526 111.578 134.378C111.043 135.319 110.642 136.15 110.442 136.748C110.435 136.77 110.417 136.804 110.41 136.824L109.647 136.396L109.234 136.162C109.019 134.468 107.306 131.882 104.159 128.404L95.5563 119.052L73.7992 114.058C71.1764 113.467 70.4507 113.409 69.9364 114.042L68.701 113.343C69.1597 112.678 70.2049 111.236 71.0108 109.823C71.8475 108.353 72.5641 106.783 72.9743 105.86C72.9866 105.832 73.0045 105.793 73.016 105.767L74.2513 106.462C74.2302 106.5 74.2243 106.528 74.2047 106.564C73.6219 107.636 73.6631 108.294 74.4399 108.734C74.7575 108.912 75.1376 109.046 75.6733 109.167L90.627 112.566L85.8433 107.373C85.2926 106.751 84.7596 106.2 84.2387 105.688C82.8997 104.375 81.6634 103.41 80.5879 102.801C79.5071 102.191 78.5934 101.962 77.833 102.029C77.1989 102.084 76.6669 102.335 76.2795 102.83L75.1032 102.168C75.3642 101.814 75.6532 101.384 75.9389 100.945C76.3797 100.268 76.8108 99.567 77.1051 99.0528C77.6589 98.074 78.0881 97.1925 78.2797 96.5927L79.4558 97.2549Z" fill="white"/>
<path d="M364.887 103.559C365.089 104.005 365.401 104.606 365.781 105.288C366.178 106.001 366.649 106.802 367.155 107.62C368.013 109.015 368.99 110.476 369.658 111.313L368.504 112.019C367.348 110.515 366.585 110.594 362.388 113.149L333.778 130.574C329.581 133.13 329.169 133.783 329.98 135.48L328.824 136.184C328.382 135.211 327.519 133.681 326.658 132.282C325.837 130.95 325.035 129.734 324.418 128.907C324.291 128.738 324.162 128.561 324.054 128.429L325.21 127.726C325.355 127.913 325.495 128.075 325.635 128.212C326.607 129.155 327.654 128.814 331.32 126.581L359.931 109.156C361.835 107.996 362.93 107.233 363.517 106.583C364.221 105.799 364.173 105.179 363.734 104.262L364.887 103.559Z" fill="white"/>
<path d="M359.107 94.1049C359.514 95.0177 360.384 96.559 361.37 98.1641C361.837 98.9187 362.333 99.685 362.799 100.369C363.194 100.949 363.569 101.473 363.877 101.857L362.72 102.561C362.071 101.72 361.526 101.399 360.451 101.709C359.608 101.953 358.448 102.573 356.606 103.696L327.993 121.123C324.958 122.972 323.918 123.825 323.873 124.797C323.857 125.169 323.972 125.558 324.195 126.027L323.043 126.731C322.896 126.41 322.693 126.015 322.47 125.599C322.193 125.079 321.879 124.515 321.537 123.931C321.321 123.563 321.098 123.191 320.873 122.828C319.887 121.225 318.904 119.754 318.273 118.978L319.425 118.274C320.576 119.76 321.338 119.682 325.535 117.126L354.147 99.6995C358.344 97.1438 358.752 96.4878 357.95 94.8087L359.107 94.1049Z" fill="white"/>
<path d="M139.878 41.5373C139.546 42.1994 139.447 43.2798 139.501 44.5794C139.559 46.0053 139.804 47.6998 140.184 49.4873L142.652 61.2766L160.236 77.8054C162.196 79.6393 162.788 80.0561 163.554 79.77L164.262 80.9927C163.71 81.2526 162.639 81.7173 161.548 82.2821C161.241 82.4404 160.932 82.6045 160.633 82.7773C160.384 82.9196 160.135 83.0764 159.886 83.2303C159.324 83.5759 158.773 83.9288 158.274 84.2642C157.615 84.7056 157.054 85.0977 156.689 85.3445C156.677 85.3518 156.657 85.3663 156.646 85.3736L155.936 84.1538C155.952 84.1437 155.96 84.1364 155.976 84.1277C157.088 83.4786 157.5 82.9719 157.062 82.2124C156.896 81.9293 156.652 81.6519 156.279 81.2962L143.657 69.3922L145.303 76.9473C145.925 79.8935 146.751 82.1515 147.657 83.7168C149.06 86.1374 150.686 87.0217 152.137 86.4176L152.809 87.5822C151.97 87.9466 150.364 88.8019 149.321 89.3798C149.076 89.5148 148.828 89.6528 148.667 89.7457C148.297 89.9592 147.979 90.1625 147.666 90.3628C147.159 90.691 146.71 91.0018 146.418 91.2617L145.742 90.0971C146.416 88.5318 146.256 85.436 145.315 80.8489L142.661 68.4498L126.467 53.1669C124.506 51.3329 123.913 50.9118 123.148 51.2051L122.441 49.9825C123.172 49.634 124.808 48.9196 126.218 48.1064C127.73 47.2396 129.195 46.2086 130.006 45.6277L130.717 46.8504C129.58 47.5038 129.261 48.1035 129.722 48.8992C129.906 49.2129 130.164 49.5193 130.566 49.8939L141.712 60.3734L140.235 53.479C139.669 50.5793 138.891 48.3707 138.033 46.8896C136.894 44.9264 135.593 44.2309 134.308 44.7435L133.634 43.576C134.661 43.136 136.091 42.3853 136.942 41.8989C137.21 41.7435 137.428 41.5983 137.67 41.4487C138.301 41.0552 138.862 40.6762 139.203 40.3684L139.878 41.5373Z" fill="white"/>
<path d="M299.107 41.0792C299.341 41.2491 299.652 41.4509 299.996 41.6659C300.832 42.1915 301.931 42.8233 303.11 43.4579C303.745 43.7976 304.401 44.133 305.026 44.4409C305.828 44.8344 306.577 45.1801 307.14 45.3979L306.497 46.5858C304.741 45.8655 304.12 46.3157 301.784 50.6286L285.861 80.0217C283.526 84.3346 283.501 85.1058 285.056 86.1658L284.415 87.3523C283.642 86.8048 282.376 86.054 281.095 85.3468C280.92 85.251 280.747 85.1537 280.573 85.0593C280.177 84.8459 279.785 84.6411 279.404 84.4451C278.781 84.1241 278.208 83.8438 277.682 83.5984C277.185 83.3661 276.727 83.1613 276.38 83.0306L277.022 81.8457C277.65 82.1027 278.132 82.1986 278.601 82.0272C278.973 81.8922 279.342 81.5741 279.763 81.0281C280.286 80.3499 280.894 79.3262 281.722 77.7971L297.645 48.3995C299.465 45.0436 299.867 43.8354 299.235 42.967C299.054 42.7201 298.803 42.4965 298.462 42.2627L299.107 41.0792Z" fill="white"/>
<path d="M149.437 35.9934C147.9 37.1061 147.958 37.8701 150.417 42.1116L167.18 71.0477C169.639 75.292 170.283 75.7161 172.007 74.9564L172.683 76.1214C172.108 76.3669 171.334 76.7533 170.512 77.1905C169.96 77.4839 169.39 77.7977 168.83 78.1172C168.791 78.1405 168.751 78.1607 168.712 78.184C167.076 79.1238 165.573 80.0636 164.776 80.6707L164.1 79.5087C165.623 78.399 165.566 77.6349 163.107 73.3891L146.346 44.4545C143.886 40.2116 143.241 39.7845 141.53 40.5457L140.853 39.3764C141.78 38.9915 143.351 38.1635 144.987 37.2237C146.41 36.4045 147.903 35.4705 148.763 34.8241L149.437 35.9934Z" fill="white"/>
<path d="M205.486 21.9497C204.171 21.9497 203.595 22.3112 203.595 23.2316C203.595 23.5931 203.668 23.988 203.825 24.5136L208.23 39.1405L210.411 32.4345C211.38 29.6398 211.812 27.3402 211.812 25.6314C211.812 23.3608 211.033 22.1122 209.661 21.9162V20.569C210.772 20.6996 212.39 20.765 213.373 20.765C214.485 20.765 215.449 20.7011 216.072 20.5733C216.08 20.5719 216.094 20.5719 216.102 20.569V21.9162C216.091 21.9235 216.081 21.9395 216.072 21.9468C214.781 22.8251 213.452 25.6561 212.377 28.9517L208.592 40.3904L215.54 63.4669C215.744 64.1405 215.915 64.669 216.072 65.1046C216.512 66.3255 216.835 66.7204 217.431 66.8191V68.2317C217.113 68.2042 216.622 68.1562 216.072 68.1069C215.271 68.0372 214.32 67.9675 213.388 67.9675C211.567 67.9675 209.532 68.1664 208.62 68.2317V66.8191C209.949 66.8191 210.57 66.5868 210.57 65.6998C210.57 65.3702 210.497 65.0087 210.354 64.5166L205.385 47.9181L203.017 55.2802C202.077 58.1402 201.66 60.5081 201.66 62.3142C201.66 65.1104 202.626 66.6856 204.187 66.8845V68.2317C203.061 68.1011 200.488 68.0358 199.508 68.0358C198.38 68.0358 197.413 68.1011 196.791 68.2317V66.8845C198.163 65.8639 199.579 63.1039 201.066 58.6658L204.994 46.6042L198.625 25.3019C197.846 22.738 197.543 22.0804 196.734 21.9497V20.537C197.543 20.6024 199.318 20.7984 200.951 20.7984C202.699 20.7984 204.489 20.6343 205.486 20.537V21.9497Z" fill="white"/>
<path d="M227.137 21.8852C225.262 22.0813 224.932 22.7729 224.932 27.676V61.0928C224.932 65.9959 225.277 66.6846 227.137 66.8836V68.2317C226.078 68.101 224.331 68.0356 222.697 68.0356C222.398 68.0356 222.112 68.04 221.821 68.0429C221.144 68.0516 220.5 68.0661 219.917 68.0923C219.181 68.1243 218.537 68.1707 218.073 68.2317V66.8836C219.065 66.7775 219.614 66.5087 219.917 65.563C220.183 64.732 220.264 63.3853 220.264 61.0928V27.676C220.264 22.7729 219.922 22.0813 218.073 21.8852V20.537C218.903 20.6475 220.289 20.7085 221.821 20.7259C222.112 20.7288 222.398 20.7331 222.697 20.7331C224.331 20.7331 226.078 20.6678 227.137 20.537V21.8852Z" fill="white"/>
<path d="M238.199 21.8852C236.309 22.0813 235.977 22.7729 235.977 27.676V61.0928C235.977 65.9959 236.324 66.6846 238.199 66.8836V68.2317C237.132 68.101 235.37 68.0356 233.725 68.0356C233.143 68.0356 232.583 68.0444 232.041 68.056C231.328 68.0734 230.669 68.0996 230.106 68.1373C229.709 68.1635 229.349 68.194 229.064 68.2317V66.8836C229.577 66.8284 229.966 66.7266 230.274 66.5233C230.587 66.3155 230.804 65.9712 230.955 65.4468C231.195 64.6071 231.271 63.2865 231.271 61.0928V27.676C231.271 22.7729 230.927 22.0813 229.064 21.8852V20.537C230.059 20.6678 231.835 20.7331 233.725 20.7331C235.37 20.7331 237.132 20.6678 238.199 20.537V21.8852Z" fill="white"/>
<path d="M165.159 247.693C164.624 247.694 163.948 248.104 163.655 248.605C163.364 249.107 163.801 249.518 164.628 249.518C165.455 249.518 166.131 249.107 166.131 248.605C166.131 248.104 165.694 247.693 165.159 247.693Z" fill="white"/>
<path d="M169.856 245.504C169.632 245.505 169.182 246.244 168.855 247.146C168.529 248.049 168.712 248.788 169.262 248.788C169.812 248.788 170.262 248.049 170.262 247.146C170.262 246.243 170.079 245.504 169.856 245.504Z" fill="white"/>
<path d="M180.425 244.41C180.425 242.905 180.191 242.29 179.905 243.042C179.618 243.795 179.618 245.026 179.905 245.778C180.191 246.531 180.425 245.915 180.425 244.41Z" fill="white"/>
<path d="M178.36 244.41C178.36 242.905 178.126 242.29 177.84 243.042C177.553 243.795 177.553 245.026 177.84 245.778C178.126 246.531 178.36 245.915 178.36 244.41Z" fill="white"/>
<path d="M173.197 244.41C173.197 242.905 172.962 242.29 172.676 243.042C172.389 243.795 172.389 245.026 172.676 245.778C172.962 246.531 173.197 245.915 173.197 244.41Z" fill="white"/>
<path d="M269.399 243.315C268.263 243.315 267.334 243.808 267.334 244.41C267.334 245.012 268.263 245.504 269.399 245.504C270.535 245.504 271.464 245.012 271.465 244.41C271.465 243.808 270.535 243.315 269.399 243.315Z" fill="white"/>
<path d="M185.174 237.843C184.924 237.843 184.72 238.336 184.72 238.937C184.72 239.539 185.212 240.032 185.813 240.032C186.414 240.032 186.619 239.539 186.269 238.937C185.917 238.335 185.425 237.843 185.174 237.843Z" fill="white"/>
<path d="M186.703 235.197C186.748 234.044 186.503 233.397 186.161 233.761C185.818 234.124 185.782 235.069 186.08 235.859C186.409 236.731 186.654 236.472 186.703 235.197Z" fill="white"/>
<path d="M191.762 229.086C190.024 229.086 189.858 229.377 190.865 230.663C192.158 232.314 195.455 231.768 194.462 230.066C194.148 229.527 192.932 229.087 191.762 229.086Z" fill="white"/>
<path d="M193.583 223.7C192.495 223.653 191.886 223.911 192.228 224.274C192.57 224.638 193.462 224.677 194.206 224.361C195.03 224.012 194.786 223.753 193.583 223.7Z" fill="white"/>
<path d="M202.275 221.425C201.707 221.425 201.243 221.641 201.242 221.907C201.242 222.173 201.707 222.694 202.275 223.067C202.843 223.439 203.308 223.22 203.308 222.583C203.308 221.947 202.843 221.425 202.275 221.425Z" fill="white"/>
<path d="M202.155 205.315C202.055 203.682 201.951 203.721 201.519 205.554C201.235 206.758 200.584 208.025 200.072 208.367C198.483 209.431 197.47 215.242 198.272 218.688L199.038 221.972L198.997 218.688C198.906 210.998 199.095 210.304 201.097 210.978C203.56 211.806 206.199 208.86 203.851 207.905C202.984 207.552 202.221 206.387 202.155 205.315Z" fill="white"/>
<path d="M206.406 212.669C205.838 212.669 205.373 213.437 205.373 214.374C205.373 215.312 205.838 215.777 206.406 215.405C206.974 215.033 207.438 214.265 207.438 213.698C207.438 213.131 206.974 212.669 206.406 212.669Z" fill="white"/>
<path fill-rule="evenodd" clip-rule="evenodd" d="M44.0921 263.774C47.3617 263.664 49.9666 263.576 51.4151 263.576L66.6915 263.266C75.0934 263.095 85.2209 262.413 89.1966 261.751C93.1725 261.089 99.6784 260.328 103.654 260.062C114.487 259.336 114.497 259.333 114.497 258.339C114.497 257.831 114.921 257.693 115.439 258.033C115.958 258.371 117.794 256.758 119.521 254.448C122.625 250.294 125.661 249.084 127.132 251.415C127.604 252.164 127.897 251.919 127.907 250.765C127.917 249.512 128.583 249.049 129.965 249.331C131.089 249.561 132.284 249.277 132.619 248.702C132.954 248.128 133.661 247.941 134.19 248.288C134.718 248.633 135.151 248.088 135.151 247.077C135.151 245.631 135.458 245.507 136.584 246.497C137.667 247.451 138.676 247.439 140.715 246.456C142.198 245.74 143.412 244.711 143.412 244.169C143.412 243.629 143.884 243.496 144.461 243.873C145.038 244.252 145.302 244.92 145.046 245.359C144.791 245.798 145.008 246.871 145.53 247.746C146.234 248.926 146.501 248.489 146.564 246.052C146.647 242.859 146.682 242.837 147.79 245.276C148.417 246.655 149.508 247.547 150.216 247.259C150.924 246.972 151.807 247.567 152.179 248.583C152.793 250.263 152.988 250.238 154.329 248.305C155.668 246.377 155.804 246.358 155.804 248.109C155.805 250.867 158.852 253.929 159.865 252.19C160.687 250.782 163.128 250.916 164.174 252.426C164.517 252.922 165.563 252.517 166.497 251.526C167.87 250.072 168.197 250.027 168.197 251.294C168.197 252.387 168.999 252.699 170.838 252.327C172.541 251.981 173.286 251.258 172.935 250.29C172.256 248.413 175.059 248.28 175.777 250.156C176.171 251.186 176.572 251.118 177.397 249.882C178.338 248.472 178.495 248.515 178.508 250.199C178.523 252.069 178.614 252.068 180.537 250.168C181.645 249.074 183.009 246.962 183.57 245.473C184.481 243.053 184.603 243.289 184.738 247.693L184.887 252.619L186.719 248.455C187.766 246.077 188.384 242.673 188.161 240.52C187.942 238.407 188.234 236.749 188.825 236.748C189.37 236.748 189.823 237.181 189.877 237.731L189.889 237.954C189.948 238.504 190.436 238.937 191.026 238.937C191.654 238.937 191.901 238.198 191.574 237.295C191.248 236.392 191.431 235.654 191.981 235.654C192.531 235.654 192.981 236.181 192.981 236.825C192.981 237.468 194.027 237.837 195.304 237.646C197.894 237.255 198.404 234.613 197.084 228.414C196.251 224.496 197.256 223.689 200.21 225.902C201.376 226.777 201.44 227.202 200.468 227.619C199.709 227.946 199.177 230.167 199.177 233.008C199.177 237.112 199.489 237.843 201.242 237.843C202.965 237.843 203.328 237.071 203.427 233.191L203.545 228.539L204.314 232.757C204.737 235.077 205.623 237.329 206.283 237.761C206.942 238.194 207.412 240.483 207.329 242.847C207.038 250.977 207.307 252.071 209.595 252.071C211.557 252.071 211.684 251.653 211.024 247.42C210.624 244.862 209.886 241.938 209.384 240.924C208.082 238.294 208.198 225.85 209.504 227.992C210.054 228.895 210.512 231.341 210.521 233.428C210.539 237.69 213.438 246.598 214.807 246.599C215.298 246.599 215.7 245.515 215.7 244.191C215.7 242.414 216.004 242.104 216.856 243.007C217.491 243.681 217.985 246.232 217.953 248.677C217.896 253.014 219.082 255.336 220.292 253.259C220.625 252.689 220.5 251.963 220.016 251.646C219.533 251.33 219.254 249.94 219.398 248.56C219.541 247.181 219.704 245.313 219.76 244.41C219.851 242.951 219.973 242.951 220.863 244.41C221.53 245.504 221.869 245.595 221.881 244.683C221.907 242.379 223.681 243.164 224.357 245.778C224.885 247.819 225.163 247.96 225.985 246.604C226.837 245.199 227.197 245.275 228.535 247.151C229.391 248.352 230.106 248.735 230.124 248.001C230.143 247.268 230.814 246.934 231.617 247.26C232.476 247.61 233.27 247.033 233.55 245.858C233.924 244.286 234.32 244.618 235.416 247.42C237.141 251.835 238.419 251.99 238.419 247.784C238.419 243.637 240.664 242.876 242.208 246.502C243.394 249.288 243.416 249.267 243.499 245.231C243.588 240.841 244.884 239.924 246.598 243.042C247.177 244.094 247.664 244.492 247.682 243.927C247.698 243.36 248.396 243.853 249.229 245.021C250.601 246.943 250.748 246.963 250.778 245.231C250.816 243.024 252.454 242.659 253.225 244.683C253.536 245.501 253.779 245.28 253.827 244.136C253.872 243.083 254.402 242.221 255.006 242.221C255.609 242.221 255.958 243.284 255.781 244.582C255.603 245.88 256.005 247.14 256.674 247.382C257.367 247.634 258.06 246.5 258.283 244.748L258.674 241.673L259.903 244.749C261.351 248.369 263.622 247.587 262.922 243.708C262.661 242.259 262.85 240.81 263.341 240.488C263.833 240.166 264.236 240.671 264.236 241.608C264.236 242.546 264.816 243.355 265.527 243.402C266.559 243.471 266.559 243.599 265.527 244.04C263.769 244.792 263.891 246.599 265.699 246.599C266.504 246.599 267.398 247.215 267.686 247.967C268.079 248.997 268.48 248.929 269.305 247.693C270.279 246.234 270.411 246.234 270.494 247.693C270.546 248.596 271.134 247.751 271.801 245.815C272.677 243.273 273.402 242.551 274.414 243.216C275.397 243.862 275.473 244.36 274.664 244.89C273.855 245.419 273.954 246.109 274.997 247.216C277.341 249.7 277.975 249.083 277.34 244.932C276.99 242.645 277.145 241.337 277.721 241.714C277.749 241.732 277.815 241.777 277.916 241.844C279.728 243.065 292.743 251.833 295.859 250.471C299.147 249.034 304.51 248.664 304.51 249.874C304.511 250.5 305.789 250.998 307.35 250.98C311.988 250.929 313.804 251.287 313.804 252.254C313.805 252.755 314.502 253.166 315.353 253.166C316.205 253.166 316.902 253.741 316.902 254.443C316.903 255.145 317.216 255.387 317.6 254.981C317.984 254.574 319.294 255.233 320.512 256.444C321.99 257.915 324.417 258.742 327.817 258.935C329.393 259.023 330.82 259.392 332.001 259.698C332.92 259.936 333.69 260.135 334.268 260.135L373.887 263.419C380.316 263.763 396.729 264.303 410.36 264.616C433.21 265.141 442.083 265.392 439.595 265.692H-1.52588e-05C7.82385 264.597 16.6016 264.293 27.1895 264.197C33.2227 264.142 39.3551 263.934 44.0921 263.774ZM270.863 251.925C270.212 250.809 269.968 250.809 269.619 251.921C269.38 252.681 269.465 253.6 269.808 253.963C270.857 255.076 271.723 253.401 270.863 251.925ZM257.958 252.71C258.002 251.556 257.758 250.91 257.415 251.273C257.073 251.636 257.036 252.581 257.334 253.371C257.663 254.243 257.908 253.985 257.958 252.71ZM215.7 251.524C215.7 250.621 215.25 249.883 214.699 249.882C214.15 249.882 213.967 250.621 214.293 251.524C214.62 252.427 215.07 253.165 215.293 253.166C215.517 253.166 215.7 252.427 215.7 251.524ZM262.17 252.136C262.17 251.499 261.706 250.977 261.138 250.977C260.57 250.977 260.106 251.193 260.105 251.459C260.105 251.725 260.57 252.247 261.138 252.619C261.706 252.991 262.17 252.773 262.17 252.136ZM232.583 250.394C231.764 248.132 231.19 248.398 231.19 251.041C231.19 252.28 231.634 253.003 232.177 252.648C232.72 252.292 232.903 251.277 232.583 250.394ZM251.844 248.788C251.844 248.186 251.379 247.693 250.811 247.693C250.243 247.693 249.778 248.186 249.778 248.788C249.778 249.39 250.243 249.882 250.811 249.882C251.379 249.882 251.844 249.39 251.844 248.788ZM191.948 243.927C191.948 242.989 191.483 242.221 190.916 242.221C190.348 242.221 189.883 242.683 189.883 243.25C189.883 243.817 190.348 244.585 190.916 244.957C191.483 245.329 191.948 244.865 191.948 243.927ZM195.061 240.633C195.05 239.044 194.748 238.815 193.876 239.739C193.233 240.421 192.983 241.742 193.321 242.676C194.102 244.83 197.117 243.716 197.097 241.282C197.082 239.722 196.947 239.701 196.079 241.126C195.245 242.494 195.075 242.412 195.061 240.633ZM200.128 241.764C200.172 240.611 199.928 239.964 199.585 240.328C199.243 240.691 199.206 241.636 199.504 242.426C199.833 243.298 200.078 243.039 200.128 241.764ZM204.082 240.807C202.106 240.039 200.959 241.74 201.726 244.302C202.324 246.3 202.612 246.399 203.895 245.038C205.716 243.109 205.789 241.47 204.082 240.807Z" fill="white"/>
<path d="M18.5385 325.54C18.5385 327.349 17.9788 328.813 16.8593 329.932C15.7398 331.009 14.2758 331.547 12.4673 331.547H7.81706C6.00862 331.547 4.54464 331.009 3.42513 329.932C2.30562 328.813 1.74586 327.349 1.74586 325.54V291.826C1.74586 290.017 2.30562 288.575 3.42513 287.498C4.54464 286.379 6.00862 285.819 7.81706 285.819H12.4673C14.2758 285.819 15.7398 286.379 16.8593 287.498C17.9788 288.575 18.5385 290.017 18.5385 291.826V325.54ZM8.20458 291.826C7.98929 291.826 7.88164 291.933 7.88164 292.149V325.217C7.88164 325.432 7.98929 325.54 8.20458 325.54H12.0798C12.2951 325.54 12.4027 325.432 12.4027 325.217V292.149C12.4027 291.933 12.2951 291.826 12.0798 291.826H8.20458Z" fill="white"/>
<path d="M30.7975 292.084L31.4433 286.077H41.6481C43.4566 286.077 44.9205 286.637 46.04 287.757C47.1596 288.833 47.7193 290.276 47.7193 292.084V312.3C47.7193 314.108 47.0304 315.572 45.6525 316.692C44.3177 317.768 42.7461 318.306 40.9377 318.306H37.9021V331.288H31.7663V292.084H30.7975ZM41.2606 292.084H37.9021V312.3H41.2606C41.4759 312.3 41.5835 312.192 41.5835 311.977V292.407C41.5835 292.192 41.4759 292.084 41.2606 292.084Z" fill="white"/>
<path d="M75.2975 325.282L74.7808 331.288H60.6362V292.084H59.6674L60.3133 286.077H75.2975L74.6517 292.084H66.772V305.647H74.0058L73.3599 311.654H66.772V325.282H75.2975Z" fill="white"/>
<path d="M87.228 292.084L87.8739 286.077H98.0786C99.8871 286.077 101.351 286.637 102.471 287.757C103.59 288.833 104.15 290.276 104.15 292.084V312.3C104.15 313.247 103.956 314.108 103.569 314.883C103.181 315.615 102.664 316.24 102.018 316.756L106.152 331.288H99.9517L96.2702 318.306H94.3326V331.288H88.1968V292.084H87.228ZM97.6911 292.084H94.3326V312.3H97.6911C97.9064 312.3 98.014 312.192 98.014 311.977V292.407C98.014 292.192 97.9064 292.084 97.6911 292.084Z" fill="white"/>
<path d="M123.881 331.288H117.745L121.233 292.084H120.071L120.716 286.077H132.536L136.54 331.288H130.404L129.694 323.538H124.592L123.881 331.288ZM125.108 317.531H129.177L127.175 295.055L125.108 317.531Z" fill="white"/>
<path d="M165.575 311.654V325.54C165.575 327.349 165.015 328.813 163.896 329.932C162.776 331.009 161.312 331.547 159.504 331.547H154.854C153.045 331.547 151.581 331.009 150.462 329.932C149.342 328.813 148.783 327.349 148.783 325.54V291.826C148.783 290.017 149.342 288.575 150.462 287.498C151.581 286.379 153.045 285.819 154.854 285.819H159.504C161.312 285.819 162.776 286.379 163.896 287.498C165.015 288.575 165.575 290.017 165.575 291.826V306.293L159.439 305.647V292.149C159.439 291.933 159.332 291.826 159.117 291.826H155.241C155.026 291.826 154.918 291.933 154.918 292.149V325.217C154.918 325.432 155.026 325.54 155.241 325.54H159.117C159.332 325.54 159.439 325.432 159.439 325.217V311.654H165.575ZM157.889 330.578V332.516H158.019C159.698 332.516 160.537 333.054 160.537 334.13V336.714C160.537 337.101 160.258 337.424 159.698 337.683C159.181 337.984 158.514 338.135 157.696 338.135H153.691V334.905H156.468V336.714H157.696V334.13H157.631C156.899 334.13 156.275 333.958 155.758 333.614C155.284 333.269 155.048 332.903 155.048 332.516V330.578H157.889Z" fill="white"/>
<path d="M183.97 331.288H177.834L181.322 292.084H180.159L180.805 286.077H192.625L196.629 331.288H190.493L189.783 323.538H184.68L183.97 331.288ZM185.197 317.531H189.266L187.264 295.055L185.197 317.531ZM191.72 279.167V283.752C191.29 284.355 190.622 284.7 189.718 284.786C188.857 284.829 187.974 284.592 187.07 284.075C186.252 283.645 185.434 283.494 184.616 283.623C183.841 283.709 183.238 284.075 182.807 284.721V280.135C183.281 279.576 183.948 279.274 184.81 279.231C185.714 279.145 186.596 279.339 187.458 279.812C188.319 280.243 189.158 280.415 189.977 280.329C190.795 280.243 191.376 279.855 191.72 279.167Z" fill="white"/>
<path d="M225.664 325.54C225.664 327.349 225.104 328.813 223.985 329.932C222.865 331.009 221.401 331.547 219.593 331.547H214.943C213.134 331.547 211.67 331.009 210.551 329.932C209.431 328.813 208.871 327.349 208.871 325.54V291.826C208.871 290.017 209.431 288.575 210.551 287.498C211.67 286.379 213.134 285.819 214.943 285.819H219.593C221.401 285.819 222.865 286.379 223.985 287.498C225.104 288.575 225.664 290.017 225.664 291.826V325.54ZM215.33 291.826C215.115 291.826 215.007 291.933 215.007 292.149V325.217C215.007 325.432 215.115 325.54 215.33 325.54H219.205C219.421 325.54 219.528 325.432 219.528 325.217V292.149C219.528 291.933 219.421 291.826 219.205 291.826H215.33Z" fill="white"/>
<path d="M275.17 325.282L274.653 331.288H260.508V292.084H259.539L260.185 286.077H275.17L274.524 292.084H266.644V305.647H273.878L273.232 311.654H266.644V325.282H275.17Z" fill="white"/>
<path d="M304.223 311.654V325.54C304.223 327.349 303.663 328.813 302.544 329.932C301.424 331.009 299.96 331.547 298.152 331.547H293.502C291.693 331.547 290.229 331.009 289.11 329.932C287.99 328.813 287.43 327.349 287.43 325.54V291.826C287.43 290.017 287.99 288.575 289.11 287.498C290.229 286.379 291.693 285.819 293.502 285.819H298.152C299.96 285.819 301.424 286.379 302.544 287.498C303.663 288.575 304.223 290.017 304.223 291.826V306.293L298.087 305.647V292.149C298.087 291.933 297.98 291.826 297.764 291.826H293.889C293.674 291.826 293.566 291.933 293.566 292.149V325.217C293.566 325.432 293.674 325.54 293.889 325.54H297.764C297.98 325.54 298.087 325.432 298.087 325.217V311.654H304.223Z" fill="white"/>
<path d="M334.35 325.282L333.833 331.288H318.397V292.084H317.428L318.074 286.077H324.533V325.282H334.35Z" fill="white"/>
<path d="M346.959 331.288V292.084H345.99L346.636 286.077H353.095V331.288H346.959Z" fill="white"/>
<path d="M365.344 292.084L365.99 286.077H376.194C378.003 286.077 379.467 286.637 380.586 287.757C381.706 288.833 382.266 290.276 382.266 292.084V312.3C382.266 314.108 381.577 315.572 380.199 316.692C378.864 317.768 377.292 318.306 375.484 318.306H372.448V331.288H366.313V292.084H365.344ZM375.807 292.084H372.448V312.3H375.807C376.022 312.3 376.13 312.192 376.13 311.977V292.407C376.13 292.192 376.022 292.084 375.807 292.084Z" fill="white"/>
<path d="M401.003 318.371V325.217C401.003 325.432 401.111 325.54 401.326 325.54H403.909C404.125 325.54 404.232 325.432 404.232 325.217V313.592L399.13 311.331C398.742 311.202 398.204 310.987 397.515 310.685C396.826 310.341 396.202 309.845 395.642 309.2C395.126 308.554 394.867 307.671 394.867 306.552V291.826C394.867 290.017 395.427 288.575 396.546 287.498C397.666 286.379 399.13 285.819 400.938 285.819H404.297C406.105 285.819 407.569 286.379 408.689 287.498C409.808 288.575 410.368 290.017 410.368 291.826V301.385L404.232 300.868V292.149C404.232 291.933 404.125 291.826 403.909 291.826H401.326C401.111 291.826 401.003 291.933 401.003 292.149V305.647L406.105 307.908C406.493 308.08 407.031 308.317 407.72 308.618C408.409 308.92 409.012 309.393 409.528 310.039C410.088 310.685 410.368 311.568 410.368 312.687V325.54C410.368 327.349 409.808 328.813 408.689 329.932C407.569 331.009 406.105 331.547 404.297 331.547H400.938C399.13 331.547 397.666 331.009 396.546 329.932C395.427 328.813 394.867 327.349 394.867 325.54V318.371H401.003Z" fill="white"/>
<path d="M438.28 325.282L437.763 331.288H423.619V292.084H422.65L423.296 286.077H438.28L437.634 292.084H429.754V305.647H436.988L436.342 311.654H429.754V325.282H438.28Z" fill="white"/>
</svg>
